<svg height="512" viewBox="0 0 512 512" width="512" xmlns="http://www.w3.org/2000/svg"><g id="Flat"><path d="m128 40h264v432h-264z" fill="#8acce7"/><path d="m392 40h96v432h-96z" fill="#379ec3"/><path d="m152 64h216v376h-216z" fill="#379ec3"/><path d="m240 408h128v32h-128z" fill="#396795"/><path d="m24 408h216v32h-216z" fill="#2d80b3"/><path d="m320 120v56h-80v-56a24.00619 24.00619 0 0 1 24-24h32a24.00619 24.00619 0 0 1 24 24z" fill="#eedc9a"/><path d="m280 120v56h-40v-56a24.00619 24.00619 0 0 1 24-24h7.98a39.74255 39.74255 0 0 1 8.02 24z" fill="#eebe33"/><path d="m264 120v56h-80v-56a24.00619 24.00619 0 0 1 24-24h32a24.00619 24.00619 0 0 1 24 24z" fill="#eedc9a"/><path d="m224 120v56h-40v-56a24.00619 24.00619 0 0 1 24-24h7.98a39.74255 39.74255 0 0 1 8.02 24z" fill="#eebe33"/><path d="m152 96h32a24 24 0 0 1 24 24v56a0 0 0 0 1 0 0h-80a0 0 0 0 1 0 0v-56a24 24 0 0 1 24-24z" fill="#eedc9a"/><path d="m368 152v-16h-288a8.00039 8.00039 0 0 0 -8 8v112h16v-72h32v40h16v-40h32v40h16v-40h32v40h16v-40h32v40h16v-40h32v56h16v-56h40v-16h-40v-16zm-280 16v-16h32v16zm48 0v-16h32v16zm48 0v-16h32v16zm48 0v-16h32v16zm80 0h-32v-16h32z" fill="#2f4054"/><path d="m184 296c0 43.25-22.67993 79.21-52.59009 86.60986a47.64606 47.64606 0 0 1 -11.40991 1.39014c-35.3501 0-64-39.3999-64-88s28.6499-88 64-88a47.64606 47.64606 0 0 1 11.40991 1.39014c29.91016 7.39986 52.59009 43.35986 52.59009 86.60986z" fill="#c4d4e0"/><path d="m184 296c0 43.25-22.67993 79.21-52.59009 86.60986a89.77958 89.77958 0 0 1 -13.59985-14.96972c-14.07006-19.34009-21.81006-44.78028-21.81006-71.64014s7.74-52.3 21.81006-71.64014a89.77958 89.77958 0 0 1 13.59985-14.96972c29.91016 7.39986 52.59009 43.35986 52.59009 86.60986z" fill="#a6b2bc"/><path d="m240 296c0 43.25-22.67993 79.21-52.59009 86.60986a47.64606 47.64606 0 0 1 -11.40991 1.39014c-35.3501 0-64-39.3999-64-88s28.6499-88 64-88a47.64606 47.64606 0 0 1 11.40991 1.39014c29.91016 7.39986 52.59009 43.35986 52.59009 86.60986z" fill="#c4d4e0"/><path d="m240 296c0 43.25-22.67993 79.21-52.59009 86.60986a89.77958 89.77958 0 0 1 -13.59985-14.96972c-14.07006-19.34009-21.81006-44.78028-21.81006-71.64014s7.74-52.3 21.81006-71.64014a89.77958 89.77958 0 0 1 13.59985-14.96972c29.91016 7.39986 52.59009 43.35986 52.59009 86.60986z" fill="#a6b2bc"/><path d="m296 296c0 43.25-22.67993 79.21-52.59009 86.60986a47.64606 47.64606 0 0 1 -11.40991 1.39014c-35.3501 0-64-39.3999-64-88s28.6499-88 64-88a47.64606 47.64606 0 0 1 11.40991 1.39014c29.91016 7.39986 52.59009 43.35986 52.59009 86.60986z" fill="#c4d4e0"/><path d="m296 296c0 43.25-22.67993 79.21-52.59009 86.60986a89.77958 89.77958 0 0 1 -13.59985-14.96972c-14.07006-19.34009-21.81006-44.78028-21.81006-71.64014s7.74-52.3 21.81006-71.64014a89.77958 89.77958 0 0 1 13.59985-14.96972c29.91016 7.39986 52.59009 43.35986 52.59009 86.60986z" fill="#a6b2bc"/><ellipse cx="288" cy="296" fill="#c4d4e0" rx="64" ry="88"/><ellipse cx="288" cy="296" fill="#a6b2bc" rx="24" ry="40"/><path d="m368 328v-16h-344a8.00039 8.00039 0 0 0 -8 8v32a40.04584 40.04584 0 0 0 40 40h312v-16h-48v-48zm-336 24v-24h40v24a39.79015 39.79015 0 0 0 8.022 24h-24.022a24.0275 24.0275 0 0 1 -24-24zm56 0v-24h40v24a39.79015 39.79015 0 0 0 8.022 24h-24.022a24.0275 24.0275 0 0 1 -24-24zm56 0v-24h40v24a39.79015 39.79015 0 0 0 8.022 24h-24.022a24.0275 24.0275 0 0 1 -24-24zm56 0v-24h48v48h-24a24.0275 24.0275 0 0 1 -24-24zm104 24h-40v-48h40z" fill="#2f4054"/></g></svg>