<svg id="Capa_1" enable-background="new 0 0 497 497" height="512" viewBox="0 0 497 497" width="512" xmlns="http://www.w3.org/2000/svg"><g><path d="m369 452v27c0 9.941-8.059 18-18 18-9.941 0-18-8.059-18-18v-27z" fill="#ffe07d"/><path d="m109 452v27c0 9.941-8.059 18-18 18-9.941 0-18-8.059-18-18v-27z" fill="#ffe07d"/><path d="m76.722 261.5-18.549-207.688c-2.592-29.032 24.226-53.812 58.239-53.812h209.176c34.013 0 60.831 24.78 58.239 53.812l-18.549 207.688-8.278 66h-272z" fill="#c17d4f"/><path d="m367.29 239.01-2.01 22.49-8.28 66h-31.12c-2.51-7.21-3.88-14.95-3.88-23 0-29.91 18.85-55.49 45.29-65.49z" fill="#c17d4f"/><path d="m397 413.07v15.11c-1.85.21-3.72.32-5.62.32h-340.76c-1.9 0-3.77-.11-5.62-.32v-15.11c0-2.52 2.05-4.57 4.57-4.57h342.86c2.52 0 4.57 2.05 4.57 4.57z" fill="#9a6a53"/><path d="m360.2 302-3.2 25.5h-272l-3.2-25.5z" fill="#b16e3d"/><path d="m81.17 53.81c-2.59-29.03 24.23-53.81 58.24-53.81h-23c-34.01 0-60.83 24.78-58.24 53.81l16.541 185.2h-.001l2.01 22.49 8.28 66h23 8.12c2.51-7.21 3.88-14.95 3.88-23 0-15.291-4.929-29.447-13.279-40.97-5.186-7.156-8.217-15.646-9.004-24.449z" fill="#b16e3d"/><path d="m73 452h36v24.5h-36z" fill="#365e7d"/><path d="m333 452h36v24.5h-36z" fill="#365e7d"/><path d="m292.032 271.5h-142.064c-4.131 0-7.554-2.743-7.827-6.271l-13.328-172.513c-1.468-18.999 13.716-35.216 32.973-35.216h118.429c19.257 0 34.441 16.217 32.973 35.216l-13.329 172.512c-.273 3.529-3.696 6.272-7.827 6.272z" fill="#fff5d7"/><path d="m169.97 271.5h-20c-4.13 0-7.56-2.74-7.83-6.27l-13.33-172.51c-1.47-19 13.72-35.22 32.98-35.22h20c-19.26 0-34.45 16.22-32.98 35.22l13.33 172.51c.27 3.53 3.7 6.27 7.83 6.27z" fill="#ffeaa8"/><path d="m109 476.5v-24.5h-23-13v24.5 2.5c0 4.97 2.02 9.47 5.27 12.73 3.08 3.08 7.28 5.05 11.93 5.25-2.62-3.65-4.2-8.35-4.2-13.48 0-3.866 3.134-7 7-7z" fill="#ffd064"/><path d="m369 476.5v-24.5h-23-13v24.5 2.5c0 4.97 2.02 9.47 5.27 12.73 3.08 3.08 7.28 5.05 11.93 5.25-2.62-3.65-4.2-8.35-4.2-13.48 0-3.866 3.134-7 7-7z" fill="#ffd064"/><path d="m49.569 398.5c-2.523 0-4.569 2.046-4.569 4.569v53.862c0 2.523 2.046 4.569 4.569 4.569h342.862c2.523 0 4.569-2.046 4.569-4.569v-53.862c0-2.523-2.046-4.569-4.569-4.569z" fill="#b16e3d"/><path d="m392.43 398.5h-322.86-20c-2.524 0-4.57 2.046-4.57 4.57v25.11 28.75c0 2.524 2.046 4.57 4.57 4.57h20c-2.52 0-4.57-2.05-4.57-4.57v-15.43c0-7.18 5.82-13 13-13h313.38c1.9 0 3.77-.11 5.62-.32v-25.11c0-2.524-2.046-4.57-4.57-4.57z" fill="#985e33"/><path d="m30.809 322-8.211 25.5c-1.036 3.017-1.598 6.254-1.598 9.623v21.755c0 16.36 13.262 29.622 29.622 29.622h340.755c16.36 0 29.622-13.262 29.622-29.622v-21.755c0-3.368-.562-6.605-1.598-9.623l-14.124-25.5z" fill="#c17d4f"/><path d="m70.62 408.5h-20c-16.36 0-29.62-13.26-29.62-29.62v-21.76c0-3.37.56-6.6 1.6-9.62l8.21-25.5h20l-8.21 25.5c-1.04 3.02-1.6 6.25-1.6 9.62v21.76c0 16.36 13.26 29.62 29.62 29.62z" fill="#b16e3d"/><circle cx="50" cy="304.5" fill="#985e33" r="50"/><circle cx="392" cy="304.5" fill="#985e33" r="50"/><g fill="#fff5d7"><circle cx="50" cy="304.5" r="17.5"/><circle cx="392" cy="304.5" r="17.5"/></g></g></svg>