<?xml version="1.0" encoding="iso-8859-1"?>
<!-- Generator: Adobe Illustrator 19.0.0, SVG Export Plug-In . SVG Version: 6.00 Build 0)  -->
<svg version="1.1" id="Capa_1" xmlns="http://www.w3.org/2000/svg" xmlns:xlink="http://www.w3.org/1999/xlink" x="0px" y="0px"
	 viewBox="0 0 512 512" style="enable-background:new 0 0 512 512;" xml:space="preserve">
<path style="fill:#4DBBEB;" d="M462,136h40v320h-80c0-15.652,0-304.304,0-320H462z"/>
<g>
	<circle style="fill:#FED42D;" cx="462" cy="96" r="40"/>
	<path style="fill:#FED42D;" d="M316,276v40c-5.273,0-114.737,0-120,0v-40C201.273,276,310.737,276,316,276z"/>
</g>
<path style="fill:#4DBBEB;" d="M50,136h40c0,4.778,0,317.754,0,320H10V136H50z"/>
<circle style="fill:#FED42D;" cx="50" cy="96" r="40"/>
<path d="M462,226c-5.52,0-10,4.48-10,10s4.48,10,10,10s10-4.48,10-10S467.52,226,462,226z"/>
<path d="M50,226c-5.52,0-10,4.48-10,10s4.48,10,10,10s10-4.48,10-10S55.52,226,50,226z"/>
<path d="M10,466h80c5.523,0,10-4.478,10-10v-11h312v11c0,5.522,4.478,10,10,10h80c5.522,0,10-4.478,10-10V136
	c0-5.522-4.478-10-10-10h-0.027C508.265,117.637,512,107.248,512,96c0-27.57-22.43-50-50-50s-50,22.43-50,50
	c0,11.248,3.735,21.637,10.027,30H422c-5.522,0-10,4.478-10,10v50.03c-7.399,0.025-17.158,0.065-23,0.113V166.63
	c0-5.522-4.478-10-10-10s-10,4.478-10,10v12.435c-0.931-0.964-1.899-2.045-2.923-3.258c-10.745-12.754-24.515-23.761-40.077-32.106
	V121.83c0-5.522-4.478-10-10-10s-10,4.478-10,10v12.983c-12.92-4.643-26.438-7.5-40-8.448V96c0-5.522-4.478-10-10-10
	s-10,4.478-10,10v30.365c-13.565,0.948-27.084,3.807-40,8.452V120.17c0-5.522-4.477-10-10-10s-10,4.478-10,10v23.542
	c-15.764,8.457-29.695,19.652-40.55,32.652c-0.758,0.908-1.587,1.755-2.45,2.566v-12.3c0-5.522-4.477-10-10-10s-10,4.478-10,10
	v20.385c-4.189,0.067-14.913,0.05-23,0.024V136c0-5.522-4.477-10-10-10h-0.027C96.265,117.637,100,107.248,100,96
	c0-27.57-22.43-50-50-50S0,68.43,0,96c0,11.248,3.735,21.637,10.027,30H10c-5.523,0-10,4.478-10,10v320C0,461.522,4.477,466,10,466z
	 M80,446H20V146h20v50c0,5.522,4.477,10,10,10s10-4.478,10-10v-50h20V446z M412,386h-23V246h23V386z M369,386h-43v-70v-40v-52.635
	c11.722,10.137,26.674,17.329,43,20.634V386z M206,406h40v19h-40V406z M186,425h-43v-19h43V425z M306,286v20H206v-20H306z M306,326
	v60h-40v-60H306z M206,326h40v60h-40V326z M266,406h40v19h-40V406z M326,406h43v19h-43V406z M306,266h-40v-79.359
	c14.617,1.835,28.449,7.664,40,16.924V266z M246,266h-40v-62.438c11.538-9.26,25.37-15.088,40-16.922V266z M186,276v40v70h-43
	V244.817c16.149-3.513,31.29-11.046,43-21.321V276z M123,386h-23V247h23V386z M100,406h23v19h-23V406z M389,425v-19h23v19H389z
	 M492,446h-60V146h20v50c0,5.522,4.478,10,10,10s10-4.478,10-10v-50h20V446z M432,96c0-16.542,13.458-30,30-30s30,13.458,30,30
	s-13.458,30-30,30S432,112.542,432,96z M412,206.031V226h-23v-19.856C394.683,206.096,404.526,206.056,412,206.031z
	 M350.789,188.701c4.64,5.496,10.324,11.234,18.211,14.57v20.187c-14.663-3.788-27.83-11.575-36.517-21.887
	c-2.039-2.417-4.216-4.742-6.483-6.965v-27.672C335.465,173.135,343.88,180.501,350.789,188.701z M306,156.279v23.139
	c-12.232-7.071-25.847-11.487-40-12.904v-20.1C279.651,147.52,293.238,150.868,306,156.279z M246,146.414v20.099
	c-14.162,1.416-27.777,5.83-40,12.895v-23.123C218.757,150.87,232.344,147.52,246,146.414z M160.806,189.179
	c7.006-8.391,15.56-15.917,25.194-22.232v27.658c-2.373,2.327-4.659,4.785-6.815,7.365c-8.521,10.2-21.771,18.214-36.185,22.224
	v-21.525C149.846,199.571,156.007,194.933,160.806,189.179z M112.244,207.063c4.378,0,8.351-0.012,10.756-0.046V227h-23v-19.959
	C103.808,207.052,108.197,207.063,112.244,207.063z M20,96c0-16.542,13.458-30,30-30s30,13.458,30,30s-13.458,30-30,30
	S20,112.542,20,96z"/>
<g>
</g>
<g>
</g>
<g>
</g>
<g>
</g>
<g>
</g>
<g>
</g>
<g>
</g>
<g>
</g>
<g>
</g>
<g>
</g>
<g>
</g>
<g>
</g>
<g>
</g>
<g>
</g>
<g>
</g>
</svg>
