<svg height="512" viewBox="0 0 58 59" width="512" xmlns="http://www.w3.org/2000/svg"><g id="Page-1" fill="none" fill-rule="evenodd"><g id="011---Swimming-Pool" fill-rule="nonzero"><rect id="Rectangle-path" fill="#3f5c6c" height="50" rx="6" width="58" y="9"/><rect id="Rectangle-path" fill="#2fa8cc" height="42" rx="2" width="50" x="4" y="13"/><path id="Shape" d="m17 32c-4.9705627 0-9 4.0294373-9 9s4.0294373 9 9 9 9-4.0294373 9-9-4.0294373-9-9-9zm0 14c-2.7614237 0-5-2.2385763-5-5s2.2385763-5 5-5 5 2.2385763 5 5c-.0033061 2.7600532-2.2399468 4.9966939-5 5z" fill="#f5efca"/><path id="Shape" d="m39 0c-2.7600532.00330612-4.9966939 2.23994685-5 5v1h-10v-1c0-1.65685425 1.3431458-3 3-3 .5522847 0 1-.44771525 1-1s-.4477153-1-1-1c-2.7600532.00330612-4.9966939 2.23994685-5 5v15c0 .5522847.4477153 1 1 1s1-.4477153 1-1v-4h10v4c0 .5522847.4477153 1 1 1s1-.4477153 1-1v-15c0-1.65685425 1.3431458-3 3-3 .5522847 0 1-.44771525 1-1s-.4477153-1-1-1zm-5 8v2h-10v-2zm-10 6v-2h10v2z" fill="#9fc9d3"/><g fill="#fff"><path id="Shape" d="m23 21c-.799189-.0028092-1.5579228-.3518997-2.08-.957-.1441772-.1751499-.359142-.2766257-.586-.2766257s-.4418228.1014758-.586.2766257c-.3669932.4142136-1.0002864.4524932-1.4145.0855s-.4524932-1.0002864-.0855-1.4145c.5309746-.5895137 1.2871146-.9260951 2.0805-.9260951s1.5495254.3365814 2.0805.9260951c.1441704.1755123.3593664.2772337.5865.2772337s.4423296-.1017214.5865-.2772337c.5309914-.5898489 1.2873542-.9266503 2.081-.9266503s1.5500086.3368014 2.081.9266503c.3669932.4142136.3287136 1.0475068-.0855 1.4145s-1.0475068.3287136-1.4145-.0855c-.144189-.174427-.3586921-.2754134-.585-.2754134s-.440811.1009864-.585.2754134c-.5211072.6029897-1.2770544.9518043-2.074.957z"/><path id="Shape" d="m35 21c-.799189-.0028092-1.5579228-.3518997-2.08-.957-.1441772-.1751499-.359142-.2766257-.586-.2766257s-.4418228.1014758-.586.2766257c-.3669932.4142136-1.0002864.4524932-1.4145.0855-.4142135-.3669932-.4524932-1.0002864-.0855-1.4145.5309746-.5895137 1.2871146-.9260951 2.0805-.9260951s1.5495254.3365814 2.0805.9260951c.1441704.1755123.3593664.2772337.5865.2772337s.4423296-.1017214.5865-.2772337c.5309914-.5898489 1.2873542-.9266503 2.081-.9266503s1.5500086.3368014 2.081.9266503c.3669932.4142136.3287136 1.0475068-.0855 1.4145s-1.0475068.3287136-1.4145-.0855c-.144189-.174427-.3586921-.2754134-.585-.2754134s-.440811.1009864-.585.2754134c-.5211072.6029897-1.2770544.9518043-2.074.957z"/><path id="Shape" d="m13.5 28.244c-.8196334.0010482-1.6063249-.3225452-2.188-.9l-.02-.02c-.4434387-.4226033-1.1405613-.4226033-1.584 0-.25258677.2527654-.62083532.3515768-.96602997.259213-.34519465-.0923639-.61489213-.3618707-.70750001-.707-.09260787-.3451293.0059432-.7134476.25852998-.966213 1.22816382-1.1698454 3.1557653-1.1781805 4.394-.019l.021.021c.4436418.4220955 1.1403582.4220955 1.584 0l.022-.022c1.2370411-1.1606549 3.1655806-1.1518729 4.392.02.2599566.2510745.3642126.6228779.2726972.9725073-.0915155.3496295-.3645604.6226744-.7141899.7141899-.3496294.0915154-.7214328-.0127406-.9725073-.2726972-.4434387-.4226033-1.1405613-.4226033-1.584 0l-.022.021c-.5813464.5765995-1.367202.8997854-2.186.899z"/><path id="Shape" d="m44.5 28.244c-.8196334.0010482-1.6063249-.3225452-2.188-.9l-.02-.02c-.4434387-.4226033-1.1405613-.4226033-1.584 0-.2525868.2527654-.6208353.3515769-.96603.259213-.3451947-.0923638-.6148921-.3618707-.7075-.707s.0059432-.7134476.25853-.966213c1.2281638-1.1698454 3.1557653-1.1781805 4.394-.019l.021.021c.4436418.4220955 1.1403582.4220955 1.584 0l.022-.022c1.2370411-1.1606549 3.1655806-1.1518729 4.392.02.2599566.2510745.3642126.6228779.2726972.9725073-.0915155.3496295-.3645604.6226744-.7141899.7141899-.3496294.0915154-.7214328-.0127406-.9725073-.2726972-.4434387-.4226033-1.1405613-.4226033-1.584 0l-.022.021c-.5813464.5765995-1.367202.8997854-2.186.899z"/><path id="Shape" d="m44.5 39.244c-.8196334.0010482-1.6063249-.3225452-2.188-.9l-.02-.02c-.4434387-.4226033-1.1405613-.4226033-1.584 0-.2525868.2527654-.6208353.3515769-.96603.259213-.3451947-.0923638-.6148921-.3618707-.7075-.707s.0059432-.7134476.25853-.966213c1.2281638-1.1698454 3.1557653-1.1781805 4.394-.019l.021.021c.443844.4215892 1.140156.4215892 1.584 0l.022-.022c1.2370411-1.1606549 3.1655806-1.1518729 4.392.02.3789722.3923789.3735524 1.0160848-.0121814 1.4018186s-1.0094397.3911536-1.4018186.0121814c-.4434387-.4226033-1.1405613-.4226033-1.584 0l-.022.021c-.5813464.5765995-1.367202.8997854-2.186.899z"/><path id="Shape" d="m29.5 42.24c-.8280812.0026535-1.6228033-.3261101-2.207-.913-.2779669-.2816609-.6866584-.3907218-1.068-.285-.5310218.1518783-1.0846217-.1554782-1.2365-.6865s.1554782-1.0846217.6865-1.2365c1.0798661-.3053501 2.2404007-.001437 3.032.794.4387629.4360234 1.1472371.4360234 1.586 0 1.2358895-1.1771429 3.1781105-1.1771429 4.414 0 .3789722.3923789.3735524 1.0160848-.0121814 1.4018186s-1.0094397.3911536-1.4018186.0121814c-.4387629-.4360234-1.1472371-.4360234-1.586 0-.5841967.5868899-1.3789188.9156535-2.207.913z"/><path id="Shape" d="m44.5 50.244c-.8196334.0010482-1.6063249-.3225452-2.188-.9l-.02-.02c-.4434387-.4226033-1.1405613-.4226033-1.584 0-.2525868.2527654-.6208353.3515769-.96603.259213-.3451947-.0923638-.6148921-.3618707-.7075-.707s.0059432-.7134476.25853-.966213c1.2281638-1.1698454 3.1557653-1.1781805 4.394-.019l.021.021c.4436418.4220955 1.1403582.4220955 1.584 0l.022-.022c1.2370411-1.1606549 3.1655806-1.1518729 4.392.02.3789722.3923789.3735524 1.0160848-.0121814 1.4018186s-1.0094397.3911536-1.4018186.0121814c-.4434387-.4226033-1.1405613-.4226033-1.584 0l-.022.021c-.5813464.5765995-1.367202.8997854-2.186.899z"/><path id="Shape" d="m29 31c-.799189-.0028092-1.5579228-.3518997-2.08-.957-.1441772-.1751499-.359142-.2766257-.586-.2766257s-.4418228.1014758-.586.2766257c-.237403.2679492-.5997216.3888915-.9504739.3172691-.3507523-.0716225-.6366507-.3249284-.75-.6645-.1133493-.3395717-.0369291-.7138199.2004739-.9817691.5309746-.5895137 1.2871146-.9260951 2.0805-.9260951s1.5495254.3365814 2.0805.9260951c.1441704.1755123.3593664.2772337.5865.2772337s.4423296-.1017214.5865-.2772337c.5309914-.5898489 1.2873542-.9266503 2.081-.9266503s1.5500086.3368014 2.081.9266503c.3669932.4142136.3287136 1.0475068-.0855 1.4145s-1.0475068.3287136-1.4145-.0855c-.144189-.174427-.3586921-.2754134-.585-.2754134s-.440811.1009864-.585.2754134c-.5211072.6029897-1.2770544.9518043-2.074.957z"/><path id="Shape" d="m29 53c-.799189-.0028092-1.5579228-.3518997-2.08-.957-.1441772-.1751499-.359142-.2766257-.586-.2766257s-.4418228.1014758-.586.2766257c-.3669932.4142135-1.0002864.4524932-1.4145.0855-.4142135-.3669932-.4524932-1.0002864-.0855-1.4145.5309746-.5895137 1.2871146-.9260951 2.0805-.9260951s1.5495254.3365814 2.0805.9260951c.1441704.1755123.3593664.2772337.5865.2772337s.4423296-.1017214.5865-.2772337c.5309914-.5898489 1.2873542-.9266503 2.081-.9266503s1.5500086.3368014 2.081.9266503c.3669932.4142136.3287135 1.0475068-.0855 1.4145-.4142136.3669932-1.0475068.3287135-1.4145-.0855-.144189-.174427-.3586921-.2754134-.585-.2754134s-.440811.1009864-.585.2754134c-.5211072.6029897-1.2770544.9518043-2.074.957z"/></g><path id="Shape" d="m26 41c.0041116 1.1814431-.2305864 2.3515315-.69 3.44l-3.81-1.27c.6666517-1.3698652.6666517-2.9701348 0-4.34l3.81-1.27c.4594136 1.0884685.6941116 2.2585569.69 3.44z" fill="#c03a2b"/><path id="Shape" d="m20.44 32.69-1.27 3.81c-1.3698652-.6666517-2.9701348-.6666517-4.34 0l-1.27-3.81c2.2010643-.9200081 4.6789357-.9200081 6.88 0z" fill="#c03a2b"/><path id="Shape" d="m12 41c-.001762.7520846.1693057 1.4945182.5 2.17l-3.81 1.27c-.9200081-2.2010643-.9200081-4.6789357 0-6.88l3.81 1.27c-.3306943.6754818-.501762 1.4179154-.5 2.17z" fill="#c03a2b"/><path id="Shape" d="m20.44 49.31c-2.2010643.9200081-4.6789357.9200081-6.88 0l1.27-3.81c1.3698652.6666517 2.9701348.6666517 4.34 0z" fill="#c03a2b"/></g></g></svg>