<svg id="Layer_1" height="512" viewBox="0 0 512 512" width="512" xmlns="http://www.w3.org/2000/svg" data-name="Layer 1"><path d="m291.66 33.25 117.38 117.38a299.5 299.5 0 0 0 -117.38-23.95z" fill="#fb6771"/><path d="m291.66 33.25v93.43a299.5 299.5 0 0 0 -117.38 23.95z" fill="#f7df77"/><path d="m291.66 126.68v191.95l-117.38-168a299.5 299.5 0 0 1 117.38-23.95z" fill="#fb6771"/><path d="m409.04 150.63-117.38 168v-191.95a299.5 299.5 0 0 1 117.38 23.95z" fill="#f7df77"/><path d="m325.8 335.12a13.11 13.11 0 0 1 -15.9 20.58l-19.31-11.31 19.31-11.32a13.119 13.119 0 0 1 15.9 2.05z" fill="#7b78ea"/><path d="m325.8 375.12a13.11 13.11 0 0 1 -15.9 20.58l-19.31-11.31 19.31-11.32a13.119 13.119 0 0 1 15.9 2.05z" fill="#7b78ea"/><g fill="#9c98ed"><path d="m288.74 384.39-19.32 11.31a13.111 13.111 0 1 1 0-22.63z"/><path d="m288.74 344.39-19.32 11.31a13.111 13.111 0 1 1 0-22.63z"/><path d="m122.35 419.95a17.385 17.385 0 1 1 -17.39 17.38 17.378 17.378 0 0 1 17.39-17.38z"/></g><path d="m289.66 33.25-117.38 117.38a299.4 299.4 0 0 1 45.079-15.079l72.3-72.3z" fill="#ffeea4"/><path d="m217.359 135.551a299.4 299.4 0 0 0 -45.079 15.079l117.38 168v-42.937l-80.718-115.528a13.877 13.877 0 0 1 1.563-17.76z" fill="#ff99a3"/><path d="m293.9 29.007a6 6 0 0 0 -8.484 0l-117.38 117.38a6 6 0 0 0 -.676 7.679l117.23 167.782v13.152l-12.138-7.112a19.125 19.125 0 0 0 -23.175 2.985 19.109 19.109 0 0 0 23.175 30l12.139-7.106v21.233l-12.138-7.112a19.125 19.125 0 0 0 -23.175 2.985 19.109 19.109 0 0 0 23.175 30l12.139-7.106v42.513a36.47 36.47 0 0 1 -72.94 0v-84.52a48 48 0 1 0 -96 0v63.172a23.387 23.387 0 1 0 12-.368v-62.8a36 36 0 0 1 72 0v84.52a48.47 48.47 0 1 0 96.94 0v-41.426l10.275 6.018a19.111 19.111 0 1 0 0-32.982l-10.276 6.024v-19.06l10.275 6.018a19.111 19.111 0 1 0 0-32.982l-10.276 6.024v-14.731l115.368-165.121a6 6 0 0 0 -.676-7.679zm-10.24 91.737a306.852 306.852 0 0 0 -37.553 3.053 6 6 0 0 0 1.709 11.878 294.9 294.9 0 0 1 35.844-2.927v166.818l-102.167-146.225a294.468 294.468 0 0 1 40.807-12.832 6 6 0 1 0 -2.754-11.68q-11.877 2.8-23.553 6.574l87.667-87.668zm-17.28 229.783a7.111 7.111 0 1 1 .007-12.28l10.481 6.141zm0 40a7.111 7.111 0 1 1 .007-12.28l10.481 6.141zm-132.65 46.8a11.385 11.385 0 1 1 -11.38-11.38 11.4 11.4 0 0 1 11.38 11.383zm179.2-59.08a7.115 7.115 0 0 1 8.63 11.167 7.11 7.11 0 0 1 -8.625 1.106l-10.475-6.135zm0-40a7.115 7.115 0 0 1 8.63 11.167 7.111 7.111 0 0 1 -8.625 1.106l-10.475-6.135zm-17.27-290.512 87.653 87.654a303.409 303.409 0 0 0 -87.653-14.634zm0 251.831v-166.811a291.632 291.632 0 0 1 102.174 20.576z" fill="#284268"/><path d="m230.952 206.927 26.77 38.309a6 6 0 1 0 9.836-6.873l-26.77-38.309a6 6 0 1 0 -9.836 6.873z" fill="#284268"/><path d="m215.183 173.882a6 6 0 0 0 -1.481 8.355l6.6 9.441a6 6 0 0 0 9.836-6.875l-6.6-9.441a6 6 0 0 0 -8.355-1.48z" fill="#284268"/></svg>