<svg id="Capa_1" enable-background="new 0 0 512 512" height="512" viewBox="0 0 512 512" width="512" xmlns="http://www.w3.org/2000/svg"><g><path d="m464.235 512h-416.47c-5.69 0-10.302-4.612-10.302-10.302v-25.08h437.073v25.08c.001 5.69-4.612 10.302-10.301 10.302z" fill="#407093"/><path d="m464.235 512h-18.836v-35.382h29.138v25.08c0 5.69-4.613 10.302-10.302 10.302z" fill="#365e7d"/><path d="m37.463 99.902h437.073v376.715h-437.073z" fill="#ecf4ff"/><path d="m445.398 99.902h29.138v376.715h-29.138z" fill="#ddeafb"/><path d="m474.537 99.902h-437.074v-89.6c0-5.69 4.613-10.302 10.302-10.302h416.47c5.69 0 10.302 4.612 10.302 10.302z" fill="#407093"/><path d="m445.398 0v99.902h29.138v-89.6c0-5.69-4.612-10.302-10.302-10.302z" fill="#365e7d"/><g fill="#e7a2cb"><circle cx="256" cy="49.951" r="16.65"/><circle cx="340.293" cy="49.951" r="16.65"/><circle cx="171.707" cy="49.951" r="16.65"/></g><circle cx="256" cy="288.26" fill="#407093" r="124.878"/><path d="m181.062 261.203c18.731 0 18.731 20.813 37.463 20.813s18.732-20.813 37.463-20.813c18.732 0 18.732 20.813 37.465 20.813 18.732 0 18.732-20.813 37.464-20.813 6.392 0 10.602 2.425 14.12 5.617-9.677-40.187-45.922-70.138-89.036-70.138-43.107 0-79.347 29.941-89.031 70.117 3.511-3.181 7.715-5.596 14.092-5.596z" fill="#ecf4ff"/><path d="m299.981 281.012c12.523-4.146 14.68-19.809 30.934-19.809 6.386 0 10.594 2.42 14.11 5.609-6.388-26.508-24.328-48.562-48.184-60.5 6.157 12.303 9.629 26.174 9.629 40.843.002 11.954-2.304 23.378-6.489 33.857z" fill="#ddeafb"/><path d="m256 379.837c50.496 0 91.577-41.081 91.577-91.577 0-7.382-.884-14.559-2.541-21.44-3.518-3.193-7.728-5.617-14.121-5.617-18.732 0-18.732 20.813-37.464 20.813s-18.732-20.813-37.465-20.813c-18.732 0-18.732 20.813-37.463 20.813s-18.731-20.813-37.463-20.813c-6.376 0-10.58 2.414-14.093 5.597-1.66 6.886-2.546 14.071-2.546 21.46.002 50.496 41.083 91.577 91.579 91.577z" fill="#cbe2ff"/><path d="m345.036 266.82c-3.518-3.193-7.728-5.617-14.121-5.617-16.254 0-18.411 15.663-30.934 19.809-13.491 33.785-46.545 57.72-85.087 57.72-14.668 0-28.539-3.472-40.842-9.629 15.038 30.051 46.121 50.735 81.948 50.735 50.496 0 91.577-41.081 91.577-91.577 0-7.382-.884-14.56-2.541-21.441z" fill="#bed8fb"/><path d="m382.959 319.48h-24.976c-5.747 0-10.406-4.659-10.406-10.406v-41.626c0-5.747 4.659-10.406 10.406-10.406h24.976c5.747 0 10.406 4.659 10.406 10.406v41.626c.001 5.747-4.658 10.406-10.406 10.406z" fill="#e7a2cb"/><g><path d="m93.658 451.043h-22.894c-4.267 0-7.726-3.459-7.726-7.726s3.459-7.726 7.726-7.726h22.894c4.267 0 7.726 3.459 7.726 7.726s-3.458 7.726-7.726 7.726z" fill="#cbe2ff"/></g><g><path d="m93.658 417.742h-22.894c-4.267 0-7.726-3.459-7.726-7.726 0-4.268 3.459-7.726 7.726-7.726h22.894c4.267 0 7.726 3.459 7.726 7.726.001 4.268-3.458 7.726-7.726 7.726z" fill="#cbe2ff"/></g><g><path d="m441.236 451.043h-22.894c-4.267 0-7.726-3.459-7.726-7.726s3.459-7.726 7.726-7.726h22.894c4.267 0 7.726 3.459 7.726 7.726s-3.459 7.726-7.726 7.726z" fill="#cbe2ff"/></g><g><path d="m441.236 417.742h-22.894c-4.267 0-7.726-3.459-7.726-7.726 0-4.268 3.459-7.726 7.726-7.726h22.894c4.267 0 7.726 3.459 7.726 7.726 0 4.268-3.459 7.726-7.726 7.726z" fill="#cbe2ff"/></g></g></svg>