<?xml version="1.0" encoding="iso-8859-1"?>
<!-- Generator: Adobe Illustrator 19.0.0, SVG Export Plug-In . SVG Version: 6.00 Build 0)  -->
<svg version="1.1" id="Capa_1" xmlns="http://www.w3.org/2000/svg" xmlns:xlink="http://www.w3.org/1999/xlink" x="0px" y="0px"
	 viewBox="0 0 512.002 512.002" style="enable-background:new 0 0 512.002 512.002;" xml:space="preserve">
<polygon style="fill:#61AFF6;" points="417.422,504.414 94.878,504.414 94.578,29.999 417.121,29.999 "/>
<polygon style="fill:#55A2F0;" points="417.121,29.999 372.367,29.999 372.667,504.414 417.422,504.414 "/>
<path style="fill:#FFB125;" d="M295.761,504.414h-79.523V354.786c0-2.823,2.288-5.111,5.111-5.111h69.3
	c2.823,0,5.111,2.288,5.111,5.111v149.628H295.761z"/>
<g>
	<path style="fill:#FFFFFF;" d="M181.521,416.979H132.89c-1.623,0-2.938-1.316-2.938-2.938v-61.428c0-1.623,1.316-2.938,2.938-2.938
		h48.631c1.623,0,2.938,1.315,2.938,2.938v61.428C184.459,415.663,183.143,416.979,181.521,416.979z"/>
	<path style="fill:#FFFFFF;" d="M379.11,416.979h-48.631c-1.623,0-2.938-1.316-2.938-2.938v-61.428c0-1.623,1.316-2.938,2.938-2.938
		h48.631c1.623,0,2.938,1.315,2.938,2.938v61.428C382.048,415.663,380.733,416.979,379.11,416.979z"/>
</g>
<path style="fill:#FFB125;" d="M433.283,7.298H78.717c-1.207,0-2.186,0.979-2.186,2.186v25.034c0,1.207,0.979,2.186,2.186,2.186
	h354.566c1.207,0,2.186-0.979,2.186-2.186V9.484C435.469,8.277,434.49,7.298,433.283,7.298z"/>
<g>
	<path style="fill:#FFFFFF;" d="M181.521,278.089H132.89c-1.623,0-2.938-1.315-2.938-2.938v-61.428c0-1.623,1.316-2.938,2.938-2.938
		h48.631c1.623,0,2.938,1.316,2.938,2.938v61.428C184.459,276.774,183.143,278.089,181.521,278.089z"/>
	<path style="fill:#FFFFFF;" d="M280.315,278.089h-48.631c-1.623,0-2.938-1.315-2.938-2.938v-61.428
		c0-1.623,1.316-2.938,2.938-2.938h48.631c1.623,0,2.938,1.316,2.938,2.938v61.428C283.253,276.774,281.938,278.089,280.315,278.089
		z"/>
	<path style="fill:#FFFFFF;" d="M379.11,278.089h-48.631c-1.623,0-2.938-1.315-2.938-2.938v-61.428c0-1.623,1.316-2.938,2.938-2.938
		h48.631c1.623,0,2.938,1.316,2.938,2.938v61.428C382.048,276.774,380.733,278.089,379.11,278.089z"/>
	<path style="fill:#FFFFFF;" d="M181.521,150.395H132.89c-1.623,0-2.938-1.316-2.938-2.938V86.028c0-1.623,1.316-2.938,2.938-2.938
		h48.631c1.623,0,2.938,1.316,2.938,2.938v61.428C184.459,149.079,183.143,150.395,181.521,150.395z"/>
	<path style="fill:#FFFFFF;" d="M280.315,150.395h-48.631c-1.623,0-2.938-1.316-2.938-2.938V86.028c0-1.623,1.316-2.938,2.938-2.938
		h48.631c1.623,0,2.938,1.316,2.938,2.938v61.428C283.253,149.079,281.938,150.395,280.315,150.395z"/>
	<path style="fill:#FFFFFF;" d="M379.11,150.395h-48.631c-1.623,0-2.938-1.316-2.938-2.938V86.028c0-1.623,1.316-2.938,2.938-2.938
		h48.631c1.623,0,2.938,1.316,2.938,2.938v61.428C382.048,149.079,380.733,150.395,379.11,150.395z"/>
</g>
<g>
	<path style="fill:#B6FA4D;" d="M156.417,483.645c-0.257-14.496-11.323-26.353-25.486-27.845
		c-6.572-10.503-18.236-17.493-31.539-17.493c-20.537,0-37.185,16.648-37.185,37.185c0,2.802,0.32,5.528,0.908,8.153
		L156.417,483.645L156.417,483.645z"/>
	<path style="fill:#B6FA4D;" d="M355.583,483.645c0.257-14.496,11.323-26.353,25.486-27.845
		c6.572-10.503,18.236-17.493,31.539-17.493c20.537,0,37.185,16.648,37.185,37.185c0,2.802-0.32,5.528-0.908,8.153L355.583,483.645
		L355.583,483.645z"/>
</g>
<path style="fill:#FF901D;" d="M434.413,7.622h-43.699v29.082h42.568c1.207,0,2.186-0.979,2.186-2.186V9.484
	C435.469,8.693,435.044,8.005,434.413,7.622z"/>
<path style="fill:#77DD00;" d="M468.287,479.4H43.713c-6.987,0-12.651,5.664-12.651,12.651l0,0c0,6.987,5.664,12.651,12.651,12.651
	h424.574c6.987,0,12.651-5.664,12.651-12.651l0,0C480.938,485.064,475.274,479.4,468.287,479.4z"/>
<path style="fill:#6EC102;" d="M478.554,499.423c0.114-0.158,0.227-0.316,0.333-0.479c0.108-0.166,0.208-0.337,0.309-0.508
	c0.1-0.17,0.201-0.34,0.293-0.515c0.092-0.175,0.174-0.355,0.258-0.535c0.084-0.181,0.171-0.359,0.247-0.545
	c0.075-0.184,0.139-0.373,0.206-0.562c0.067-0.19,0.139-0.377,0.198-0.571c0.058-0.192,0.102-0.391,0.151-0.587
	c0.049-0.197,0.105-0.391,0.145-0.591c0.041-0.209,0.066-0.423,0.097-0.635c0.029-0.195,0.066-0.386,0.086-0.584l0,0l0,0
	c0.041-0.415,0.064-0.835,0.064-1.26c0-0.342-0.037-0.675-0.064-1.01v-0.25c-0.006-0.064-0.02-0.125-0.028-0.188
	c-0.018-0.156-0.045-0.309-0.068-0.464c-0.05-0.327-0.111-0.649-0.185-0.968c-0.036-0.155-0.072-0.311-0.114-0.464
	c-0.103-0.378-0.223-0.748-0.36-1.111c-0.026-0.069-0.045-0.141-0.072-0.209c-0.168-0.423-0.362-0.831-0.573-1.23
	c-0.022-0.041-0.037-0.087-0.06-0.128c-0.002,0.004-0.005,0.007-0.007,0.011c-2.14-3.951-6.312-6.64-11.121-6.64h-32.168l0,0
	c0,7.322-5.936,13.258-13.258,13.258H43.713c-4.807,0-8.987-2.681-11.128-6.629c-1.119,2.063-1.681,4.471-1.484,7.024
	c0.513,6.648,6.324,11.648,12.992,11.648H436.12h32.168c0.424,0,0.843-0.023,1.256-0.063c0.138-0.014,0.273-0.041,0.41-0.059
	c0.272-0.036,0.544-0.071,0.81-0.124c0.161-0.032,0.318-0.077,0.477-0.115c0.236-0.056,0.472-0.111,0.702-0.18
	c0.167-0.05,0.328-0.112,0.492-0.169c0.215-0.075,0.43-0.148,0.64-0.234c0.166-0.068,0.326-0.145,0.489-0.22
	c0.199-0.091,0.397-0.183,0.59-0.284c0.162-0.085,0.318-0.177,0.476-0.268c0.184-0.107,0.366-0.215,0.544-0.331
	c0.155-0.101,0.306-0.208,0.457-0.315c0.169-0.121,0.336-0.244,0.499-0.374c0.147-0.116,0.29-0.236,0.431-0.359
	c0.155-0.134,0.306-0.272,0.454-0.413c0.137-0.131,0.271-0.264,0.402-0.401c0.14-0.146,0.275-0.296,0.408-0.449
	c0.126-0.145,0.25-0.29,0.37-0.441C478.319,499.746,478.437,499.585,478.554,499.423z"/>
<g>
	<path style="fill:#E1EFFB;" d="M181.521,83.09h-24.315v67.304h24.315c1.623,0,2.938-1.316,2.938-2.938V86.028
		C184.459,84.406,183.143,83.09,181.521,83.09z"/>
	<path style="fill:#E1EFFB;" d="M280.315,83.09H256v67.304h24.315c1.623,0,2.938-1.316,2.938-2.938V86.028
		C283.253,84.406,281.938,83.09,280.315,83.09z"/>
	<path style="fill:#E1EFFB;" d="M379.11,83.09h-24.315v67.304h24.315c1.623,0,2.938-1.316,2.938-2.938V86.028
		C382.048,84.406,380.733,83.09,379.11,83.09z"/>
	<path style="fill:#E1EFFB;" d="M181.521,210.785h-24.315v67.304h24.315c1.623,0,2.938-1.316,2.938-2.938v-61.428
		C184.459,212.101,183.143,210.785,181.521,210.785z"/>
	<path style="fill:#E1EFFB;" d="M280.315,210.785H256v67.304h24.315c1.623,0,2.938-1.316,2.938-2.938v-61.428
		C283.253,212.101,281.938,210.785,280.315,210.785z"/>
	<path style="fill:#E1EFFB;" d="M379.11,210.785h-24.315v67.304h24.315c1.623,0,2.938-1.316,2.938-2.938v-61.428
		C382.048,212.101,380.733,210.785,379.11,210.785z"/>
	<path style="fill:#E1EFFB;" d="M181.521,349.674h-24.315v67.304h24.315c1.623,0,2.938-1.316,2.938-2.938v-61.428
		C184.459,350.99,183.143,349.674,181.521,349.674z"/>
	<path style="fill:#E1EFFB;" d="M379.11,349.674h-24.315v67.304h24.315c1.623,0,2.938-1.316,2.938-2.938v-61.428
		C382.048,350.99,380.733,349.674,379.11,349.674z"/>
</g>
<path d="M275.2,400.77c-4.031,0-7.299,3.267-7.299,7.299v15.084c0,4.031,3.267,7.299,7.299,7.299c4.031,0,7.299-3.267,7.299-7.299
	v-15.084C282.499,404.038,279.231,400.77,275.2,400.77z"/>
<path d="M122.652,414.04c0,5.645,4.593,10.237,10.237,10.237h48.631c5.645,0,10.237-4.592,10.237-10.237v-61.427
	c0-5.645-4.593-10.237-10.237-10.237h-48.63c-5.645,0-10.237,4.592-10.237,10.237L122.652,414.04L122.652,414.04z M137.25,356.973
	h39.91v52.707h-39.91V356.973z"/>
<path d="M320.242,414.04c0,5.645,4.592,10.237,10.236,10.237h48.632c5.644,0,10.236-4.592,10.236-10.237v-61.427
	c0-5.645-4.592-10.237-10.236-10.237h-48.632c-5.644,0-10.236,4.592-10.236,10.237V414.04z M334.84,356.973h39.909v52.707H334.84
	V356.973z"/>
<path d="M122.652,275.151c0,5.645,4.593,10.237,10.237,10.237h48.631c5.645,0,10.237-4.592,10.237-10.237v-61.427
	c0-5.645-4.593-10.237-10.237-10.237h-48.63c-5.645,0-10.237,4.592-10.237,10.237L122.652,275.151L122.652,275.151z M137.25,218.084
	h39.91v52.707h-39.91V218.084z"/>
<path d="M221.447,275.151c0,5.645,4.593,10.237,10.237,10.237h48.631c5.645,0,10.237-4.592,10.237-10.237v-61.427
	c0-5.645-4.592-10.237-10.237-10.237h-48.631c-5.645,0-10.237,4.592-10.237,10.237V275.151z M236.045,218.084h39.91v52.707h-39.91
	L236.045,218.084L236.045,218.084z"/>
<path d="M320.242,275.151c0,5.645,4.592,10.237,10.236,10.237h48.632c5.644,0,10.236-4.592,10.236-10.237v-61.427
	c0-5.645-4.592-10.237-10.236-10.237h-48.632c-5.644,0-10.236,4.592-10.236,10.237V275.151z M334.84,218.084h39.909v52.707H334.84
	V218.084z"/>
<path d="M132.89,157.693h48.631c5.645,0,10.237-4.592,10.237-10.237V86.029c0-5.645-4.593-10.237-10.237-10.237H132.89
	c-5.645,0-10.237,4.592-10.237,10.237v61.427C122.652,153.101,127.245,157.693,132.89,157.693z M137.25,90.389h39.91v52.707h-39.91
	V90.389z"/>
<path d="M231.684,157.693h48.631c5.645,0,10.237-4.592,10.237-10.237V86.029c0-5.645-4.592-10.237-10.237-10.237h-48.631
	c-5.645,0-10.237,4.592-10.237,10.237v61.427C221.447,153.101,226.04,157.693,231.684,157.693z M236.045,90.389h39.91v52.707h-39.91
	L236.045,90.389L236.045,90.389z"/>
<path d="M330.479,157.693h48.632c5.644,0,10.236-4.592,10.236-10.237V86.029c0-5.645-4.592-10.237-10.236-10.237h-48.632
	c-5.644,0-10.236,4.592-10.236,10.237v61.427C320.242,153.101,324.834,157.693,330.479,157.693z M334.84,90.389h39.909v52.707
	H334.84V90.389z"/>
<path d="M468.287,472.101H456.95c-1.429-18.844-14.642-34.438-32.275-39.416L424.43,44.003h8.853c5.231,0,9.486-4.255,9.486-9.485
	V9.485c0-5.23-4.255-9.485-9.486-9.485h-50.8c-4.031,0-7.299,3.267-7.299,7.299s3.267,7.299,7.299,7.299h45.688v14.808h-11.044
	H94.582H83.83V14.598h253.005c4.031,0,7.299-3.267,7.299-7.299S340.866,0,336.835,0H78.717c-5.23,0-9.485,4.255-9.485,9.485v25.034
	c0,5.23,4.255,9.485,9.485,9.485h8.571l0.155,245.467c0.002,4.03,3.27,7.294,7.299,7.294c0.001,0,0.003,0,0.005,0
	c4.031-0.003,7.296-3.272,7.294-7.304l-0.155-245.458h307.946l0.244,387.075c-0.024,0.001-0.047,0.005-0.071,0.006
	c-0.254,0.014-0.506,0.044-0.759,0.063c-0.601,0.045-1.202,0.09-1.797,0.158c-0.325,0.037-0.645,0.091-0.968,0.135
	c-0.519,0.071-1.039,0.14-1.553,0.23c-0.349,0.06-0.694,0.136-1.041,0.204c-0.481,0.095-0.963,0.189-1.439,0.3
	c-0.359,0.083-0.712,0.179-1.068,0.271c-0.459,0.119-0.917,0.237-1.37,0.37c-0.358,0.105-0.712,0.221-1.067,0.335
	c-0.443,0.142-0.885,0.286-1.323,0.442c-0.354,0.126-0.704,0.261-1.055,0.396c-0.429,0.166-0.857,0.334-1.28,0.513
	c-0.349,0.147-0.694,0.3-1.038,0.456c-0.417,0.188-0.83,0.382-1.24,0.583c-0.339,0.166-0.676,0.337-1.011,0.512
	c-0.406,0.212-0.807,0.431-1.206,0.656c-0.328,0.185-0.654,0.372-0.977,0.565c-0.395,0.236-0.784,0.48-1.172,0.729
	c-0.315,0.202-0.629,0.404-0.939,0.613c-0.385,0.261-0.763,0.532-1.14,0.805c-0.299,0.217-0.599,0.432-0.893,0.656
	c-0.376,0.287-0.744,0.586-1.111,0.886c-0.282,0.23-0.566,0.456-0.842,0.693c-0.37,0.317-0.729,0.647-1.089,0.977
	c-0.26,0.238-0.523,0.47-0.777,0.715c-0.371,0.356-0.728,0.728-1.087,1.098c-0.229,0.236-0.464,0.465-0.688,0.707
	c-0.389,0.419-0.762,0.854-1.136,1.29c-0.18,0.21-0.368,0.411-0.545,0.625c-0.543,0.656-1.071,1.329-1.58,2.02
	c-0.834,0.173-1.656,0.381-2.469,0.611c-0.268,0.076-0.529,0.166-0.795,0.248c-0.542,0.168-1.081,0.34-1.612,0.533
	c-0.305,0.11-0.604,0.23-0.905,0.349c-0.484,0.19-0.964,0.388-1.438,0.599c-0.305,0.135-0.606,0.274-0.906,0.418
	c-0.467,0.223-0.926,0.458-1.381,0.701c-0.284,0.151-0.568,0.3-0.848,0.459c-0.484,0.275-0.957,0.567-1.426,0.863
	c-0.232,0.147-0.47,0.286-0.699,0.438c-0.686,0.455-1.359,0.929-2.011,1.43c-0.042,0.032-0.081,0.068-0.122,0.1
	c-0.612,0.474-1.207,0.968-1.786,1.479c-0.209,0.185-0.408,0.381-0.613,0.57c-0.403,0.373-0.802,0.749-1.187,1.14
	c-0.225,0.228-0.442,0.463-0.661,0.697c-0.351,0.375-0.695,0.756-1.03,1.146c-0.213,0.249-0.423,0.499-0.63,0.754
	c-0.327,0.402-0.642,0.813-0.951,1.229c-0.189,0.254-0.379,0.506-0.561,0.765c-0.325,0.463-0.633,0.937-0.937,1.416
	c-0.142,0.225-0.292,0.444-0.43,0.671c-0.429,0.711-0.839,1.436-1.219,2.179c-0.027,0.053-0.05,0.109-0.077,0.162
	c-0.35,0.692-0.677,1.398-0.983,2.115c-0.11,0.259-0.206,0.524-0.31,0.785c-0.154,0.385-0.317,0.765-0.457,1.157h-47.31V354.786
	c0-6.843-5.567-12.41-12.41-12.41h-69.3c-6.843,0-12.41,5.567-12.41,12.41v117.316h-47.308c-0.141-0.392-0.304-0.773-0.458-1.159
	c-0.104-0.261-0.2-0.526-0.31-0.783c-0.302-0.709-0.626-1.407-0.972-2.092c-0.031-0.061-0.057-0.125-0.088-0.187
	c-0.379-0.741-0.788-1.464-1.216-2.173c-0.14-0.233-0.293-0.456-0.439-0.686c-0.301-0.474-0.606-0.943-0.927-1.401
	c-0.184-0.263-0.377-0.517-0.568-0.775c-0.307-0.412-0.619-0.819-0.943-1.218c-0.209-0.257-0.421-0.511-0.637-0.762
	c-0.333-0.388-0.675-0.766-1.024-1.139c-0.22-0.236-0.439-0.472-0.666-0.702c-0.384-0.389-0.78-0.763-1.181-1.134
	c-0.207-0.191-0.408-0.389-0.619-0.575c-0.58-0.512-1.175-1.006-1.787-1.479c-0.041-0.032-0.079-0.067-0.121-0.099
	c-0.653-0.501-1.326-0.975-2.013-1.431c-0.227-0.151-0.462-0.288-0.692-0.434c-0.472-0.298-0.947-0.591-1.433-0.867
	c-0.278-0.158-0.56-0.306-0.842-0.456c-0.458-0.244-0.919-0.48-1.388-0.705c-0.298-0.142-0.597-0.28-0.899-0.415
	c-0.477-0.212-0.96-0.411-1.447-0.603c-0.298-0.117-0.595-0.236-0.897-0.345c-0.534-0.193-1.076-0.367-1.621-0.536
	c-0.263-0.081-0.522-0.171-0.788-0.246c-0.813-0.23-1.635-0.439-2.47-0.612c-0.508-0.69-1.034-1.36-1.576-2.015
	c-0.178-0.215-0.366-0.417-0.547-0.628c-0.371-0.432-0.742-0.864-1.128-1.28c-0.227-0.245-0.465-0.478-0.697-0.717
	c-0.355-0.365-0.708-0.732-1.074-1.084c-0.256-0.246-0.52-0.48-0.781-0.72c-0.357-0.328-0.714-0.656-1.081-0.971
	c-0.277-0.238-0.561-0.466-0.844-0.696c-0.365-0.298-0.73-0.594-1.103-0.88c-0.295-0.225-0.595-0.442-0.894-0.66
	c-0.375-0.272-0.752-0.541-1.135-0.801c-0.309-0.21-0.622-0.412-0.936-0.614c-0.387-0.248-0.776-0.492-1.17-0.728
	c-0.322-0.192-0.645-0.38-0.972-0.564c-0.399-0.225-0.801-0.443-1.207-0.656c-0.332-0.174-0.665-0.345-1.002-0.511
	c-0.412-0.203-0.828-0.396-1.246-0.586c-0.34-0.154-0.681-0.308-1.025-0.454c-0.427-0.181-0.858-0.35-1.291-0.517
	c-0.345-0.133-0.689-0.268-1.037-0.392c-0.444-0.159-0.894-0.304-1.344-0.449c-0.346-0.111-0.69-0.227-1.039-0.33
	c-0.466-0.138-0.938-0.258-1.41-0.381c-0.341-0.088-0.679-0.183-1.022-0.263c-0.504-0.118-1.015-0.217-1.524-0.317
	c-0.317-0.063-0.631-0.134-0.949-0.19c-0.604-0.106-1.215-0.189-1.826-0.27c-0.23-0.03-0.457-0.072-0.688-0.099
	c-0.831-0.097-1.666-0.172-2.507-0.223l-0.06-95.362c-0.002-4.03-3.27-7.294-7.299-7.294c-0.001,0-0.003,0-0.005,0
	c-4.031,0.003-7.296,3.272-7.294,7.304l0.061,96.888c-17.738,4.913-31.05,20.557-32.484,39.476H43.713
	c-11,0-19.949,8.949-19.949,19.949c0,11.001,8.949,19.949,19.949,19.949h424.575c11.001,0,19.949-8.949,19.949-19.949
	C488.237,481.05,479.288,472.101,468.287,472.101z M367.257,471.254c0.013-0.017,0.024-0.034,0.037-0.05
	c0.306-0.396,0.631-0.778,0.963-1.151c0.084-0.095,0.17-0.188,0.256-0.282c0.325-0.352,0.659-0.696,1.006-1.025
	c0.018-0.017,0.035-0.035,0.053-0.052c0.362-0.34,0.74-0.663,1.125-0.977c0.101-0.082,0.203-0.164,0.305-0.244
	c0.376-0.296,0.76-0.583,1.155-0.853c0.02-0.014,0.039-0.029,0.059-0.042c0.411-0.279,0.837-0.538,1.268-0.788
	c0.113-0.066,0.228-0.13,0.343-0.194c0.424-0.236,0.855-0.462,1.297-0.668c0.017-0.008,0.034-0.018,0.051-0.026
	c0.455-0.211,0.921-0.401,1.392-0.58c0.123-0.047,0.247-0.093,0.372-0.137c0.47-0.168,0.944-0.326,1.428-0.462
	c0.01-0.003,0.02-0.007,0.031-0.009c0.492-0.137,0.994-0.25,1.499-0.351c0.128-0.026,0.257-0.05,0.386-0.074
	c0.511-0.093,1.027-0.174,1.55-0.229c2.232-0.235,4.233-1.484,5.424-3.387c5.51-8.808,14.987-14.066,25.351-14.066
	c0.599,0,1.216,0.022,1.843,0.063c0.032,0.002,0.064,0.005,0.096,0.007c0.625,0.043,1.26,0.104,1.904,0.187
	c0.028,0.004,0.056,0.003,0.083,0.006c13.522,1.783,24.226,12.637,25.769,26.233h-75.648
	C366.853,471.816,367.047,471.528,367.257,471.254z M223.537,356.973h64.926v115.128h-64.926L223.537,356.973L223.537,356.973z
	 M95.69,445.842c0.011-0.001,0.021-0.001,0.032-0.002c0.622-0.076,1.221-0.131,1.81-0.169c0.036-0.002,0.071-0.005,0.106-0.008
	c0.595-0.037,1.178-0.057,1.755-0.057c10.363,0,19.841,5.258,25.352,14.066c0.781,1.249,1.915,2.208,3.231,2.792
	c0.689,0.306,1.425,0.514,2.193,0.595c0.002,0,0.003,0,0.005,0.001c0.521,0.055,1.035,0.136,1.544,0.228
	c0.13,0.023,0.259,0.048,0.388,0.074c0.505,0.101,1.007,0.214,1.499,0.351c0.011,0.003,0.021,0.007,0.032,0.01
	c0.484,0.135,0.959,0.293,1.428,0.462c0.123,0.044,0.246,0.089,0.368,0.136c0.472,0.179,0.94,0.369,1.395,0.581
	c0.014,0.006,0.027,0.014,0.041,0.021c0.446,0.208,0.88,0.436,1.308,0.674c0.113,0.062,0.225,0.126,0.336,0.19
	c0.433,0.251,0.86,0.511,1.274,0.791c0.016,0.01,0.03,0.022,0.046,0.033c0.401,0.273,0.789,0.564,1.17,0.863
	c0.1,0.079,0.2,0.158,0.298,0.239c0.387,0.315,0.766,0.639,1.129,0.981c0.016,0.015,0.03,0.03,0.046,0.045
	c0.35,0.33,0.685,0.676,1.011,1.03c0.087,0.094,0.173,0.188,0.258,0.283c0.332,0.372,0.655,0.752,0.96,1.147
	c0.016,0.021,0.031,0.043,0.047,0.063c0.208,0.271,0.399,0.556,0.594,0.837h-75.65C71.247,458.431,82.061,447.534,95.69,445.842z
	 M468.287,497.402H43.713c-2.951,0-5.352-2.401-5.352-5.352s2.401-5.352,5.352-5.352H62.42h93.601h60.217h79.523h60.217h93.601
	h18.708c2.951,0,5.352,2.401,5.352,5.352C473.639,495.002,471.238,497.402,468.287,497.402z"/>
<g>
</g>
<g>
</g>
<g>
</g>
<g>
</g>
<g>
</g>
<g>
</g>
<g>
</g>
<g>
</g>
<g>
</g>
<g>
</g>
<g>
</g>
<g>
</g>
<g>
</g>
<g>
</g>
<g>
</g>
</svg>
