<?xml version="1.0" encoding="iso-8859-1"?>
<!-- Generator: Adobe Illustrator 19.0.0, SVG Export Plug-In . SVG Version: 6.00 Build 0)  -->
<svg version="1.1" id="Capa_1" xmlns="http://www.w3.org/2000/svg" xmlns:xlink="http://www.w3.org/1999/xlink" x="0px" y="0px"
	 viewBox="0 0 512 512" style="enable-background:new 0 0 512 512;" xml:space="preserve">
<polygon style="fill:#61AFF6;" points="440.178,504.713 240.903,504.713 240.765,213.389 440.04,213.389 "/>
<g>
	<polygon style="fill:#55A2F0;" points="440.04,213.389 395.361,213.389 395.499,504.713 440.178,504.713 	"/>
	<rect x="240.78" y="208.53" style="fill:#55A2F0;" width="218.33" height="24.799"/>
</g>
<polygon style="fill:#21D8DE;" points="292.444,504.713 69.547,504.713 69.34,18.388 292.237,18.388 "/>
<polygon style="fill:#11B9C1;" points="292.237,18.388 248.194,18.388 248.401,504.713 292.444,504.713 "/>
<path style="fill:#0FB0C0;" d="M306.773,7.286H55.011c-1.17,0-2.118,0.948-2.118,2.118V27.37c0,1.17,0.948,2.118,2.118,2.118
	h251.763c1.17,0,2.118-0.948,2.118-2.118V9.405C308.892,8.235,307.944,7.286,306.773,7.286z"/>
<g>
	<path style="fill:#E1EFFB;" d="M386.111,504.713h-39.752v-68.779c0-1.72,1.395-3.115,3.115-3.115h33.522
		c1.72,0,3.115,1.395,3.115,3.115V504.713z"/>
	<path style="fill:#E1EFFB;" d="M205.342,504.713h-48.901V399.277c0-1.864,1.511-3.376,3.376-3.376h42.15
		c1.864,0,3.376,1.511,3.376,3.376v105.436H205.342z"/>
	<path style="fill:#E1EFFB;" d="M131.08,122.412h-29.6c-0.811,0-1.469-0.658-1.469-1.469V80.649c0-0.811,0.658-1.469,1.469-1.469
		h29.599c0.811,0,1.469,0.658,1.469,1.469v40.294C132.549,121.755,131.891,122.412,131.08,122.412z"/>
	<path style="fill:#E1EFFB;" d="M196.044,122.412h-29.6c-0.811,0-1.469-0.658-1.469-1.469V80.649c0-0.811,0.658-1.469,1.469-1.469
		h29.6c0.811,0,1.469,0.658,1.469,1.469v40.294C197.513,121.755,196.855,122.412,196.044,122.412z"/>
	<path style="fill:#E1EFFB;" d="M261.008,122.412h-29.6c-0.811,0-1.469-0.658-1.469-1.469V80.649c0-0.811,0.658-1.469,1.469-1.469
		h29.6c0.811,0,1.469,0.658,1.469,1.469v40.294C262.477,121.755,261.819,122.412,261.008,122.412z"/>
	<path style="fill:#E1EFFB;" d="M131.08,232.035h-29.6c-0.811,0-1.469-0.658-1.469-1.469v-40.294c0-0.811,0.658-1.469,1.469-1.469
		h29.599c0.811,0,1.469,0.658,1.469,1.469v40.294C132.549,231.377,131.891,232.035,131.08,232.035z"/>
	<path style="fill:#E1EFFB;" d="M196.044,232.035h-29.6c-0.811,0-1.469-0.658-1.469-1.469v-40.294c0-0.811,0.658-1.469,1.469-1.469
		h29.6c0.811,0,1.469,0.658,1.469,1.469v40.294C197.513,231.377,196.855,232.035,196.044,232.035z"/>
	<path style="fill:#E1EFFB;" d="M261.008,232.035h-29.6c-0.811,0-1.469-0.658-1.469-1.469v-40.294c0-0.811,0.658-1.469,1.469-1.469
		h29.6c0.811,0,1.469,0.658,1.469,1.469v40.294C262.477,231.377,261.819,232.035,261.008,232.035z"/>
	<path style="fill:#E1EFFB;" d="M131.08,341.657h-29.6c-0.811,0-1.469-0.658-1.469-1.469v-40.294c0-0.811,0.658-1.469,1.469-1.469
		h29.599c0.811,0,1.469,0.658,1.469,1.469v40.294C132.549,341,131.891,341.657,131.08,341.657z"/>
	<path style="fill:#E1EFFB;" d="M196.044,341.657h-29.6c-0.811,0-1.469-0.658-1.469-1.469v-40.294c0-0.811,0.658-1.469,1.469-1.469
		h29.6c0.811,0,1.469,0.658,1.469,1.469v40.294C197.513,341,196.855,341.657,196.044,341.657z"/>
	<path style="fill:#E1EFFB;" d="M261.008,341.657h-29.6c-0.811,0-1.469-0.658-1.469-1.469v-40.294c0-0.811,0.658-1.469,1.469-1.469
		h29.6c0.811,0,1.469,0.658,1.469,1.469v40.294C262.477,341,261.819,341.657,261.008,341.657z"/>
	<path style="fill:#E1EFFB;" d="M131.08,451.28h-29.6c-0.811,0-1.469-0.658-1.469-1.469v-40.294c0-0.811,0.658-1.469,1.469-1.469
		h29.599c0.811,0,1.469,0.658,1.469,1.469v40.294C132.549,450.623,131.891,451.28,131.08,451.28z"/>
	<path style="fill:#E1EFFB;" d="M261.008,451.28h-29.6c-0.811,0-1.469-0.658-1.469-1.469v-40.294c0-0.811,0.658-1.469,1.469-1.469
		h29.6c0.811,0,1.469,0.658,1.469,1.469v40.294C262.477,450.623,261.819,451.28,261.008,451.28z"/>
	<path style="fill:#E1EFFB;" d="M348.1,314.965h-27.358c-0.75,0-1.357-0.608-1.357-1.357v-37.244c0-0.75,0.608-1.357,1.357-1.357
		H348.1c0.75,0,1.357,0.608,1.357,1.357v37.244C349.457,314.357,348.85,314.965,348.1,314.965z"/>
	<path style="fill:#E1EFFB;" d="M408.145,314.965h-27.358c-0.75,0-1.357-0.608-1.357-1.357v-37.244c0-0.75,0.608-1.357,1.357-1.357
		h27.358c0.75,0,1.357,0.608,1.357,1.357v37.244C409.503,314.357,408.895,314.965,408.145,314.965z"/>
	<path style="fill:#E1EFFB;" d="M348.1,391.145h-27.358c-0.75,0-1.357-0.608-1.357-1.357v-37.244c0-0.75,0.608-1.357,1.357-1.357
		H348.1c0.75,0,1.357,0.608,1.357,1.357v37.244C349.457,390.537,348.85,391.145,348.1,391.145z"/>
	<path style="fill:#E1EFFB;" d="M408.145,391.145h-27.358c-0.75,0-1.357-0.608-1.357-1.357v-37.244c0-0.75,0.608-1.357,1.357-1.357
		h27.358c0.75,0,1.357,0.608,1.357,1.357v37.244C409.503,390.537,408.895,391.145,408.145,391.145z"/>
</g>
<path style="fill:#77DD00;" d="M467.928,479.455H44.072c-6.975,0-12.629,5.654-12.629,12.629l0,0
	c0,6.975,5.654,12.629,12.629,12.629h423.857c6.975,0,12.629-5.654,12.629-12.629l0,0
	C480.558,485.109,474.903,479.455,467.928,479.455z"/>
<path style="fill:#6EC102;" d="M478.178,499.444c0.113-0.158,0.226-0.315,0.332-0.478c0.108-0.166,0.208-0.336,0.308-0.507
	c0.1-0.17,0.2-0.339,0.292-0.514c0.092-0.175,0.173-0.355,0.257-0.534c0.084-0.18,0.171-0.359,0.247-0.544
	c0.075-0.184,0.138-0.373,0.205-0.561c0.067-0.19,0.139-0.377,0.197-0.57c0.058-0.192,0.102-0.39,0.151-0.586
	c0.049-0.196,0.105-0.39,0.145-0.59c0.041-0.208,0.066-0.422,0.097-0.634c0.028-0.194,0.066-0.386,0.086-0.583l0,0l0,0
	c0.041-0.414,0.064-0.833,0.064-1.258c0-0.342-0.037-0.674-0.064-1.009v-0.25c-0.006-0.064-0.02-0.125-0.028-0.188
	c-0.018-0.156-0.045-0.309-0.068-0.463c-0.05-0.326-0.111-0.648-0.185-0.966c-0.036-0.155-0.071-0.31-0.113-0.463
	c-0.103-0.377-0.223-0.747-0.36-1.11c-0.026-0.069-0.045-0.14-0.072-0.208c-0.167-0.422-0.362-0.829-0.572-1.227
	c-0.022-0.041-0.037-0.087-0.059-0.128c-0.002,0.004-0.005,0.007-0.007,0.011c-2.136-3.945-6.301-6.629-11.102-6.629h-32.113l0,0
	c0,7.31-5.926,13.236-13.236,13.236H44.072c-4.799,0-8.972-2.676-11.109-6.618c-1.117,2.06-1.678,4.464-1.482,7.012
	c0.512,6.636,6.314,11.628,12.97,11.628h391.364h32.113c0.423,0,0.841-0.023,1.254-0.063c0.138-0.014,0.272-0.041,0.409-0.059
	c0.271-0.036,0.543-0.071,0.809-0.123c0.161-0.032,0.317-0.077,0.476-0.115c0.235-0.056,0.471-0.111,0.701-0.18
	c0.167-0.05,0.328-0.111,0.491-0.168c0.215-0.074,0.43-0.148,0.639-0.234c0.166-0.068,0.326-0.145,0.488-0.219
	c0.198-0.091,0.396-0.183,0.589-0.284c0.161-0.085,0.318-0.176,0.475-0.268c0.183-0.107,0.366-0.214,0.543-0.33
	c0.155-0.101,0.306-0.207,0.456-0.315c0.169-0.121,0.336-0.244,0.499-0.373c0.147-0.116,0.289-0.236,0.431-0.358
	c0.155-0.134,0.306-0.271,0.454-0.413c0.137-0.131,0.271-0.264,0.402-0.401c0.14-0.146,0.274-0.295,0.407-0.448
	c0.126-0.144,0.25-0.29,0.369-0.44C477.943,499.767,478.061,499.606,478.178,499.444z"/>
<path d="M101.481,129.698h29.599c4.828,0,8.755-3.928,8.755-8.755V80.649c0-4.827-3.927-8.755-8.755-8.755h-29.599
	c-4.828,0-8.755,3.928-8.755,8.755v40.294C92.725,125.77,96.653,129.698,101.481,129.698z M107.298,86.467h17.963v28.658h-17.963
	V86.467z"/>
<path d="M166.445,129.698h29.6c4.828,0,8.755-3.928,8.755-8.755V80.649c0-4.827-3.927-8.755-8.755-8.755h-29.6
	c-4.828,0-8.755,3.928-8.755,8.755v40.294C157.689,125.77,161.617,129.698,166.445,129.698z M172.262,86.467h17.964v28.658h-17.964
	V86.467z"/>
<path d="M231.409,129.698h29.599c4.828,0,8.755-3.928,8.755-8.755V80.649c0-4.827-3.927-8.755-8.755-8.755h-29.599
	c-4.828,0-8.755,3.928-8.755,8.755v40.294C222.654,125.77,226.581,129.698,231.409,129.698z M237.227,86.467h17.963v28.658h-17.963
	V86.467z"/>
<path d="M92.725,230.566c0,4.827,3.927,8.755,8.755,8.755h29.599c4.828,0,8.755-3.928,8.755-8.755v-40.295
	c0-4.827-3.927-8.755-8.755-8.755H101.48c-4.828,0-8.755,3.928-8.755,8.755V230.566z M107.298,196.089h17.963v28.659h-17.963
	V196.089z"/>
<path d="M157.689,230.566c0,4.827,3.927,8.755,8.755,8.755h29.6c4.828,0,8.755-3.928,8.755-8.755v-40.295
	c0-4.827-3.927-8.755-8.755-8.755h-29.6c-4.828,0-8.755,3.928-8.755,8.755V230.566z M172.262,196.089h17.964v28.659h-17.964V196.089
	z"/>
<path d="M222.654,230.566c0,4.827,3.927,8.755,8.755,8.755h29.599c4.828,0,8.755-3.928,8.755-8.755v-40.295
	c0-4.827-3.927-8.755-8.755-8.755h-29.599c-4.828,0-8.755,3.928-8.755,8.755L222.654,230.566L222.654,230.566z M237.227,196.089
	h17.963v28.659h-17.963V196.089z"/>
<path d="M92.725,340.189c0,4.827,3.927,8.755,8.755,8.755h29.599c4.828,0,8.755-3.928,8.755-8.755v-40.294
	c0-4.827-3.927-8.755-8.755-8.755H101.48c-4.828,0-8.755,3.928-8.755,8.755V340.189z M107.298,305.713h17.963v28.658h-17.963
	V305.713z"/>
<path d="M157.689,340.189c0,4.827,3.927,8.755,8.755,8.755h29.6c4.828,0,8.755-3.928,8.755-8.755v-40.294
	c0-4.827-3.927-8.755-8.755-8.755h-29.6c-4.828,0-8.755,3.928-8.755,8.755V340.189z M172.262,305.713h17.964v28.658h-17.964V305.713
	z"/>
<path d="M222.654,340.189c0,4.827,3.927,8.755,8.755,8.755h29.599c4.828,0,8.755-3.928,8.755-8.755v-40.294
	c0-4.827-3.927-8.755-8.755-8.755h-29.599c-4.828,0-8.755,3.928-8.755,8.755L222.654,340.189L222.654,340.189z M237.227,305.713
	h17.963v28.658h-17.963V305.713z"/>
<path d="M92.725,449.811c0,4.827,3.927,8.755,8.755,8.755h29.599c4.828,0,8.755-3.928,8.755-8.755v-40.294
	c0-4.827-3.927-8.755-8.755-8.755H101.48c-4.828,0-8.755,3.928-8.755,8.755V449.811z M107.298,415.335h17.963v28.658h-17.963
	V415.335z"/>
<path d="M222.654,449.811c0,4.827,3.927,8.755,8.755,8.755h29.599c4.828,0,8.755-3.928,8.755-8.755v-40.294
	c0-4.827-3.927-8.755-8.755-8.755h-29.599c-4.828,0-8.755,3.928-8.755,8.755L222.654,449.811L222.654,449.811z M237.227,415.335
	h17.963v28.658h-17.963V415.335z"/>
<path d="M467.928,472.169h-20.479l-0.055-115.78c-0.002-4.023-3.264-7.283-7.287-7.283c-0.001,0-0.002,0-0.003,0
	c-4.024,0.002-7.285,3.266-7.283,7.29l0.055,115.772h-39.478v-36.234c0-5.735-4.666-10.401-10.402-10.401h-33.522
	c-5.735,0-10.401,4.666-10.401,10.401v36.234h-39.356l-0.051-118.859l-0.048-112.692h133.148l0.033,70.339
	c0.002,4.023,3.264,7.283,7.287,7.283c0.001,0,0.002,0,0.003,0c4.024-0.002,7.285-3.266,7.283-7.29l-0.033-70.331h11.768
	c4.024,0,7.287-3.262,7.287-7.287v-24.8c0-4.025-3.262-7.287-7.287-7.287H299.602l-0.07-164.47h7.242
	c5.186,0,9.405-4.219,9.405-9.405V9.405c0-5.186-4.219-9.405-9.405-9.405H55.01c-5.186,0-9.405,4.219-9.405,9.405V27.37
	c0,5.186,4.219,9.405,9.405,9.405h7.051l0.135,317.162c0.002,4.024,3.264,7.284,7.287,7.284c0.001,0,0.002,0,0.003,0
	c4.024-0.002,7.285-3.266,7.283-7.289L76.634,36.775h208.325l0.073,171.757v0.002l0.01,24.8l0.102,238.835h-72.515v-72.892
	c0-5.88-4.783-10.662-10.662-10.662h-42.149c-5.879,0-10.662,4.783-10.662,10.662v72.892H76.82l-0.031-72.966
	c-0.002-4.024-3.264-7.284-7.287-7.284c-0.001,0-0.002,0-0.003,0c-4.024,0.002-7.285,3.266-7.283,7.289l0.031,72.96H44.072
	c-10.981,0-19.916,8.934-19.916,19.916S33.09,512,44.072,512h423.857c10.982,0,19.916-8.934,19.916-19.916
	S478.91,472.169,467.928,472.169z M353.646,440.106h25.179v32.063h-25.179V440.106z M451.821,215.818v10.227h-11.771H299.612
	l-0.003-6.512l-0.002-3.715L451.821,215.818L451.821,215.818z M69.344,22.202h-9.166v-7.629h241.427v7.629h-9.364H69.344z
	 M163.728,403.188h34.328v68.981h-34.328V403.188z M467.928,497.427H44.072c-2.946,0-5.343-2.397-5.343-5.342
	s2.397-5.342,5.343-5.342h25.465h86.905h48.901h87.091h53.926h39.752h54.055h27.762c2.946,0,5.342,2.397,5.342,5.342
	S470.874,497.427,467.928,497.427z"/>
<path d="M356.743,276.364c0-4.767-3.878-8.644-8.644-8.644h-27.358c-4.767,0-8.644,3.878-8.644,8.644v37.244
	c0,4.766,3.878,8.643,8.644,8.643H348.1c4.767,0,8.644-3.878,8.644-8.643L356.743,276.364L356.743,276.364z M342.171,307.678h-15.5
	v-25.385h15.5V307.678z"/>
<path d="M416.789,276.364c0-4.767-3.878-8.644-8.644-8.644h-27.358c-4.767,0-8.644,3.878-8.644,8.644v37.244
	c0,4.766,3.878,8.643,8.644,8.643h27.358c4.767,0,8.644-3.878,8.644-8.643V276.364z M402.216,307.678h-15.5v-25.385h15.5V307.678z"
	/>
<path d="M348.1,343.899h-27.358c-4.767,0-8.644,3.878-8.644,8.644v37.244c0,4.766,3.878,8.643,8.644,8.643H348.1
	c4.767,0,8.644-3.878,8.644-8.643v-37.244C356.743,347.777,352.866,343.899,348.1,343.899z M342.171,383.858h-15.5v-25.385h15.5
	V383.858z"/>
<path d="M408.145,343.899h-27.358c-4.767,0-8.644,3.878-8.644,8.644v37.244c0,4.766,3.878,8.643,8.644,8.643h27.358
	c4.767,0,8.644-3.878,8.644-8.643v-37.244C416.789,347.777,412.911,343.899,408.145,343.899z M402.216,383.858h-15.5v-25.385h15.5
	V383.858z"/>
<g>
</g>
<g>
</g>
<g>
</g>
<g>
</g>
<g>
</g>
<g>
</g>
<g>
</g>
<g>
</g>
<g>
</g>
<g>
</g>
<g>
</g>
<g>
</g>
<g>
</g>
<g>
</g>
<g>
</g>
</svg>
