<svg id="Capa_1" enable-background="new 0 0 504.5 504.5" height="512" viewBox="0 0 504.5 504.5" width="512" xmlns="http://www.w3.org/2000/svg"><g><path d="m172.25 285v196.592l-24.87 8.29c-3.93 1.31-6.053 5.557-4.744 9.487 1.31 3.93 5.559 6.054 9.487 4.744l29.998-10c3.063-1.021 5.128-3.887 5.128-7.115v-201.998z" fill="#49c9ff"/><path d="m247.25 285v196.592l24.87 8.29c3.93 1.31 6.053 5.557 4.744 9.487-1.31 3.93-5.559 6.054-9.487 4.744l-29.998-10c-3.063-1.021-5.128-3.887-5.128-7.115v-201.998z" fill="#2dade3"/><path d="m149.75 177.5c-45.49 0-82.5-37.01-82.5-82.5 0-4.143-3.357-7.5-7.5-7.5s-7.5 3.357-7.5 7.5c0 53.762 43.738 97.5 97.5 97.5h60v-15z" fill="#808080"/><path d="m104.75 410v87c0 4.143 3.358 7.5 7.5 7.5s7.5-3.357 7.5-7.5v-87z" fill="#60312c"/><g fill="#85453d"><path d="m59.75 497c0 4.143 3.358 7.5 7.5 7.5s7.5-3.357 7.5-7.5v-87h-15z"/><path d="m59.75 357.5c-23.435 0-42.5-19.065-42.5-42.5 0-4.143-3.358-7.5-7.5-7.5s-7.5 3.357-7.5 7.5c0 31.706 25.794 57.5 57.5 57.5h30v-15z"/><path d="m322.25 285v196.592l-24.87 8.29c-3.93 1.31-6.053 5.557-4.744 9.487 1.31 3.93 5.559 6.054 9.487 4.744l29.998-10c3.063-1.021 5.128-3.887 5.128-7.115v-201.998z"/><path d="m397.25 285v196.592l24.87 8.29c3.93 1.31 6.053 5.557 4.744 9.487-1.31 3.93-5.559 6.054-9.487 4.744l-29.998-10c-3.063-1.021-5.128-3.887-5.128-7.115v-201.998z"/></g><path d="m494.75 87.5c-4.143 0-7.5 3.357-7.5 7.5 0 45.49-37.01 82.5-82.5 82.5h-45v15h45c53.762 0 97.5-43.738 97.5-97.5 0-4.143-3.357-7.5-7.5-7.5z" fill="#60312c"/><path d="m74.75 380 15 60c16.569 0 30-13.432 30-30v-15z" fill="#ebebeb"/><path d="m59.75 395v15c0 16.568 13.431 30 30 30v-60z" fill="#fff"/><path d="m89.75 345h10c11.046 0 20 8.954 20 20v30h-30l-15-25z" fill="#ffa754"/><path d="m89.75 345h-10c-11.046 0-20 8.954-20 20v30h30z" fill="#ffcb63"/><path d="m89.75 255-15 30 15 30c16.569 0 30-13.431 30-30s-13.432-30-30-30z" fill="#60312c"/><path d="m59.75 285c0 16.569 13.431 30 30 30v-60c-16.569 0-30 13.431-30 30z" fill="#85453d"/><path d="m386 15c0-8.284-6.716-15-15-15-4.486 0-8.501 1.98-11.25 5.101-2.748-3.121-6.763-5.101-11.25-5.101-8.284 0-15 6.716-15 15-8.284 0-15 6.716-15 15s6.716 15 15 15h52.5c8.284 0 15-6.716 15-15s-6.715-15-15-15z" fill="#40211d"/><path d="m359.75 45v90c24.853 0 45-20.147 45-45s-20.147-45-45-45z" fill="#60312c"/><path d="m374.75 90c0-24.853-6.716-45-15-45-24.853 0-45 20.147-45 45s20.147 45 45 45c8.285 0 15-20.147 15-45z" fill="#85453d"/><path d="m384.75 165h-30l20 70 30-20v-30c0-11.046-8.954-20-20-20z" fill="#60312c"/><path d="m354.75 165h-20c-11.046 0-20 8.954-20 20v30l60 20v-50c0-11.046-8.954-20-20-20z" fill="#85453d"/><path d="m404.75 215c0-11.046-9.088-20-20.134-20-3.591 0-6.953.959-9.867 2.617l-20 77.383h50v-60z" fill="#696969"/><path d="m370.475 200.857-10.768 10.768c-.014.014-.038.014-.052 0l-10.768-10.768c-3.619-3.619-8.619-5.857-14.141-5.857-11.046 0-19.997 8.954-19.997 20v60h60v-77.383c-1.565.891-3.008 1.975-4.274 3.24z" fill="#808080"/><path d="m374.75 255 9 90h30l5.494-42.657c.322-2.516.506-5.074.506-7.678 0-15.211-5.671-29.09-15-39.665z" fill="#ffa754"/><path d="m314.75 255c-9.329 10.575-15 24.454-15 39.665 0 2.603.184 5.162.506 7.678l5.494 42.657h78l5.494-42.657c.322-2.516.506-5.074.506-7.678 0-15.211-5.671-29.09-15-39.665z" fill="#ffcb63"/><path d="m374.75 255v6.328c0-3.516 0-6.328 0-6.328z" fill="#ff6b8a"/><path d="m179.75 255 30 75c24.853 0 45-20.147 45-45z" fill="#2dade3"/><path d="m164.75 285c0 24.853 20.147 45 45 45v-75z" fill="#49c9ff"/><path d="m239.75 165h-30l-10 60 10 60h50z" fill="#ebebeb"/><path d="m179.75 165-20 120h50v-120z" fill="#fff"/><path d="m149.75 185v130c16.569 0 30-13.431 30-30v-120h-10c-11.046 0-20 8.954-20 20z" fill="#808080"/><path d="m249.75 165h-10v120c0 16.569 13.431 30 30 30v-130c0-11.046-8.955-20-20-20z" fill="#696969"/><path d="m209.75 45v90c24.853 0 45-20.147 45-45s-20.148-45-45-45z" fill="#ff8d7e"/><path d="m224.75 90c0-24.853-6.716-45-15-45-24.853 0-45 20.147-45 45s20.147 45 45 45c8.284 0 15-20.147 15-45z" fill="#ffb4a9"/></g></svg>