<svg id="Capa_1" enable-background="new 0 0 504.5 504.5" height="512" viewBox="0 0 504.5 504.5" width="512" xmlns="http://www.w3.org/2000/svg"><g><path d="m402.25 87.5c-4.143 0-7.5 3.357-7.5 7.5 0 45.49-37.01 82.5-82.5 82.5h-60v15h60c53.762 0 97.5-43.738 97.5-97.5 0-4.143-3.357-7.5-7.5-7.5z" fill="#999"/><path d="m192.25 177.5c-45.49 0-82.5-37.01-82.5-82.5 0-4.143-3.357-7.5-7.5-7.5s-7.5 3.357-7.5 7.5c0 53.762 43.738 97.5 97.5 97.5h60v-15z" fill="#b3b3b3"/><path d="m214.75 285v196.592l-24.87 8.29c-3.93 1.31-6.053 5.557-4.744 9.487 1.31 3.93 5.559 6.054 9.487 4.744l29.998-10c3.063-1.021 5.128-3.887 5.128-7.115v-201.998z" fill="#999"/><path d="m289.75 285v196.592l24.87 8.29c3.93 1.31 6.053 5.557 4.744 9.487-1.31 3.93-5.559 6.054-9.487 4.744l-29.998-10c-3.063-1.021-5.128-3.887-5.128-7.115v-201.998z" fill="#808080"/><path d="m259.75 0c-12.268 0-23.159 5.892-30.001 15-12.426 0-22.499 10.074-22.499 22.5v52.5h90v-52.5c0-20.711-16.789-37.5-37.5-37.5z" fill="#ffcb63"/><path d="m252.25 45v90c24.853 0 45-20.147 45-45s-20.147-45-45-45z" fill="#ffd9d4"/><path d="m267.25 90c0-24.853-6.716-45-15-45-24.853 0-45 20.147-45 45s20.147 45 45 45c8.284 0 15-20.147 15-45z" fill="#fff0d3"/><path d="m222.25 255 30 75c24.853 0 45-20.147 45-45z" fill="#808080"/><path d="m207.25 285c0 24.853 20.147 45 45 45v-75z" fill="#999"/><path d="m282.25 165h-22.5l-17.5 60 10 60h50z" fill="#ebebeb"/><path d="m222.25 165-20 120h50v-110l-7.5-10z" fill="#fff"/><path d="m192.25 185v130c16.569 0 30-13.431 30-30v-120h-10c-11.046 0-20 8.954-20 20z" fill="#b3b3b3"/><path d="m292.25 165h-10v120c0 16.569 13.431 30 30 30v-130c0-11.046-8.954-20-20-20z" fill="#999"/><path d="m244.75 165v90c0 4.142 3.358 7.5 7.5 7.5 4.143 0 7.5-3.358 7.5-7.5v-90z" fill="#353535"/></g></svg>