<svg height="512" viewBox="0 0 64 64" width="512" xmlns="http://www.w3.org/2000/svg"><path d="m8 18h41v28h-41z" fill="#ffd782"/><path d="m49 14h-41l-5-6h46z" fill="#ad6327"/><path d="m49 3h8v58h-8z" fill="#d3843d"/><path d="m57 8h4v6h-4z" fill="#ad6327"/><g fill="#66342e"><path d="m21 27a1 1 0 0 0 0-2h-2v-2h3a1 1 0 0 0 0-2h-4a1 1 0 0 0 -1 1v8a1 1 0 0 0 2 0v-3z"/><path d="m32 30v-8a1 1 0 0 0 -1-1h-5a1 1 0 0 0 -1 1v8a1 1 0 0 0 1 1h5a1 1 0 0 0 1-1zm-2-1h-3v-6h3z"/><path d="m40 31a1 1 0 0 0 .625-1.781l-2.774-2.219h2.149a1 1 0 0 0 1-1v-4a1 1 0 0 0 -1-1h-5a1 1 0 0 0 -1 1v8a1 1 0 0 0 2 0v-1.919l3.375 2.7a1 1 0 0 0 .625.219zm-4-8h3v2h-3z"/><path d="m17 33h-5a1 1 0 0 0 -1 1v8a1 1 0 0 0 2 0v-1.919l3.375 2.7a1 1 0 1 0 1.25-1.562l-2.774-2.219h2.149a1 1 0 0 0 1-1v-4a1 1 0 0 0 -1-1zm-1 4h-3v-2h3z"/><path d="m25 35a1 1 0 0 0 0-2h-4a1 1 0 0 0 -1 1v8a1 1 0 0 0 1 1h4a1 1 0 0 0 0-2h-3v-2h3a1 1 0 0 0 0-2h-3v-2z"/><path d="m35 33a1 1 0 0 0 -1 1v4.513l-3.152-5.043a1 1 0 0 0 -.848-.47h-1a1 1 0 0 0 -1 1v8a1 1 0 0 0 2 0v-6.113l4.152 6.643a1 1 0 0 0 1.848-.53v-8a1 1 0 0 0 -1-1z"/><path d="m45 33h-6a1 1 0 0 0 0 2h2v7a1 1 0 0 0 2 0v-7h2a1 1 0 0 0 0-2z"/></g><path d="m52 6h2v2h-2z" fill="#f9bb4b"/><path d="m52 10h2v2h-2z" fill="#f9bb4b"/><path d="m52 49h2v12h-2z" fill="#f9bb4b"/><path d="m52 45h2v2h-2z" fill="#f9bb4b"/><path d="m11 21h2v2h-2z" fill="#ad6327"/><path d="m44 21h2v2h-2z" fill="#ad6327"/><path d="m12 14h2v4h-2z" fill="#32b1cc"/><path d="m42 14h2v4h-2z" fill="#32b1cc"/></svg>