<svg height="512" viewBox="0 0 64 64" width="512" xmlns="http://www.w3.org/2000/svg"><path d="m15 18h41v28h-41z" fill="#ffd782" transform="matrix(-1 0 0 -1 71 64)"/><path d="m15 14h41l5-6h-46z" fill="#ad6327"/><path d="m7 3h8v58h-8z" fill="#d3843d" transform="matrix(-1 0 0 -1 22 64)"/><path d="m3 8h4v6h-4z" fill="#ad6327" transform="matrix(-1 0 0 -1 10 22)"/><path d="m10 6h2v2h-2z" fill="#f9bb4b"/><path d="m10 10h2v2h-2z" fill="#f9bb4b"/><path d="m10 49h2v12h-2z" fill="#f9bb4b"/><path d="m10 45h2v2h-2z" fill="#f9bb4b"/><path d="m51 21h2v2h-2z" fill="#f4f4e6"/><path d="m18 21h2v2h-2z" fill="#f4f4e6"/><path d="m51 41h2v2h-2z" fill="#f4f4e6"/><path d="m18 41h2v2h-2z" fill="#f4f4e6"/><g fill="#66342e"><path d="m50 31a1 1 0 0 0 0-2h-3v-2h3a1 1 0 0 0 0-2h-4a1 1 0 0 0 -1 1v8a1 1 0 0 0 1 1h4a1 1 0 0 0 0-2h-3v-2z"/><path d="m24 27a1 1 0 0 0 0-2h-4a1 1 0 0 0 -1 1v4a1 1 0 0 0 1 1h3v2h-3a1 1 0 0 0 0 2h4a1 1 0 0 0 1-1v-4a1 1 0 0 0 -1-1h-3v-2z"/><path d="m42 33h-3v-7a1 1 0 0 0 -2 0v8a1 1 0 0 0 1 1h4a1 1 0 0 0 0-2z"/><path d="m31.937 25.649a1 1 0 0 0 -1.874 0l-3 8a1 1 0 1 0 1.874.7l.506-1.349h3.114l.506 1.351a1 1 0 0 0 .937.649 1.038 1.038 0 0 0 .352-.063 1 1 0 0 0 .585-1.288zm-1.744 5.351.807-2.152.807 2.152z"/><path d="m53 39h-35a1 1 0 0 1 0-2h35a1 1 0 0 1 0 2z"/></g><path d="m20 14h2v4h-2z" fill="#32b1cc"/><path d="m50 14h2v4h-2z" fill="#32b1cc"/></svg>