<?xml version="1.0" encoding="iso-8859-1"?>
<!-- Generator: Adobe Illustrator 19.0.0, SVG Export Plug-In . SVG Version: 6.00 Build 0)  -->
<svg version="1.1" id="Capa_1" xmlns="http://www.w3.org/2000/svg" xmlns:xlink="http://www.w3.org/1999/xlink" x="0px" y="0px"
	 viewBox="0 0 512 512" style="enable-background:new 0 0 512 512;" xml:space="preserve">
<path style="fill:#40211D;" d="M433.189,60.892c-2.102-3.64-6.757-4.888-10.397-2.786L401.25,70.543l12.437-21.542
	c2.102-3.64,0.855-8.296-2.786-10.397c-3.64-2.102-8.296-0.855-10.397,2.786l-12.437,21.542l-1.609,33.73l43.945-25.372
	C434.043,69.187,435.29,64.532,433.189,60.892z"/>
<g>
	<path style="fill:#60312C;" d="M380.454,30.446c-4.204,0-7.612,3.408-7.612,7.611v24.874L360.405,41.39
		c-2.102-3.64-6.757-4.888-10.397-2.786c-3.64,2.102-4.888,6.757-2.786,10.397l12.437,21.542l-21.542-12.437
		c-3.64-2.102-8.296-0.855-10.397,2.786c-2.102,3.64-0.855,8.296,2.786,10.397l43.945,25.372l13.614-33.73V38.057
		C388.066,33.854,384.658,30.446,380.454,30.446z"/>
	<path style="fill:#60312C;" d="M380.454,45.669v91.338c25.222,0,45.669-20.447,45.669-45.669S405.677,45.669,380.454,45.669z"/>
</g>
<path style="fill:#85453D;" d="M395.677,91.338c0-25.222-6.816-45.669-15.223-45.669c-25.222,0-45.669,20.447-45.669,45.669
	s20.447,45.669,45.669,45.669C388.862,137.007,395.677,116.56,395.677,91.338z"/>
<g>
	<rect x="461.51" y="91.338" style="fill:#FFA754;" width="15.223" height="65.966"/>
	<rect x="35.267" y="91.338" style="fill:#FFA754;" width="15.223" height="65.966"/>
</g>
<path style="fill:#FFF0D3;" d="M453.899,45.669c0,0,0,22.039,0,30.446l15.223,15.223l15.223-15.223c0-8.407,0-30.446,0-30.446
	H453.899z"/>
<path style="fill:#FFCB63;" d="M484.345,76.115c0,0,0,11.89,0,20.297s-6.816,15.223-15.223,15.223
	c-8.407,0-15.223-6.816-15.223-15.223s0-20.297,0-20.297H484.345z"/>
<path style="fill:#A8E5FF;" d="M484.345,149.693h-30.446c-4.205,0-7.612,3.407-7.612,7.611c0,4.205,3.407,7.611,7.612,7.611h30.446
	c4.197,0,7.611,3.414,7.611,7.611c0,4.197-3.414,7.612-7.611,7.612H377.784v15.223h106.561c12.59,0,22.834-10.244,22.834-22.835
	C507.179,159.937,496.935,149.693,484.345,149.693z"/>
<path style="fill:#FFF0D3;" d="M27.655,45.669c0,0,0,22.039,0,30.446l15.223,15.223l15.223-15.223c0-8.407,0-30.446,0-30.446H27.655
	z"/>
<path style="fill:#FFCB63;" d="M58.101,76.115c0,0,0,11.89,0,20.297s-6.816,15.223-15.223,15.223s-15.223-6.816-15.223-15.223
	s0-20.297,0-20.297H58.101z"/>
<path style="fill:#EBEBEB;" d="M27.655,180.139c-4.197,0-7.611-3.414-7.611-7.612c0-4.197,3.414-7.611,7.611-7.611h30.446
	c4.205,0,7.611-3.407,7.611-7.611c0-4.205-3.407-7.611-7.611-7.611H27.655c-12.59,0-22.834,10.244-22.834,22.834
	c0,12.59,10.244,22.835,22.834,22.835h106.561v-15.223H27.655z"/>
<path style="fill:#4F4F4F;" d="M339.726,289.237v199.515l-25.24,8.413c-3.988,1.329-6.143,5.64-4.815,9.628
	c1.329,3.988,5.642,6.144,9.628,4.815l30.444-10.149c3.108-1.036,5.204-3.945,5.204-7.221V289.237H339.726z"/>
<path style="fill:#353535;" d="M172.273,289.237v199.515l25.24,8.413c3.988,1.329,6.143,5.64,4.815,9.628
	c-1.329,3.988-5.642,6.144-9.628,4.815l-30.444-10.149c-3.108-1.036-5.204-3.945-5.204-7.221V289.237H172.273z"/>
<path style="fill:#4F4F4F;" d="M96.159,289.237v111.275l-79.096,27.166c-3.074,1.056-5.138,3.949-5.138,7.199v30.446
	c0,4.205,3.407,7.611,7.611,7.611s7.611-3.407,7.611-7.611V440.31l79.096-27.166c3.074-1.056,5.138-3.949,5.138-7.199V289.237
	H96.159z"/>
<path style="fill:#696969;" d="M217.942,289.237v199.515l-25.24,8.413c-3.988,1.329-6.143,5.64-4.815,9.628
	c1.329,3.988,5.642,6.144,9.628,4.815l30.444-10.149c3.108-1.036,5.204-3.945,5.204-7.221V289.237H217.942z"/>
<path style="fill:#4F4F4F;" d="M294.057,289.237v199.515l25.24,8.413c3.988,1.329,6.143,5.64,4.815,9.628
	c-1.329,3.988-5.642,6.144-9.628,4.815l-30.444-10.149c-3.108-1.036-5.204-3.945-5.204-7.221V289.237H294.057z"/>
<g>
	<path style="fill:#353535;" d="M494.936,427.677l-79.096-27.166V289.237h-15.223v116.709c0,3.251,2.064,6.143,5.138,7.199
		l79.096,27.166v25.012c0,4.205,3.407,7.611,7.611,7.611c4.205,0,7.612-3.407,7.612-7.611v-30.446
		C500.075,431.626,498.011,428.733,494.936,427.677z"/>
	<path style="fill:#353535;" d="M377.784,258.791v76.115c25.222,0,45.669-20.447,45.669-45.669L377.784,258.791z"/>
</g>
<path style="fill:#4F4F4F;" d="M393.007,289.237l-15.223-30.446l-45.669,30.446c0,25.222,20.447,45.669,45.669,45.669
	C386.191,334.906,393.007,314.459,393.007,289.237z"/>
<path style="fill:#A8E5FF;" d="M403.156,167.453h-17.76l-30.446,76.115l22.834,45.669h45.669V187.75
	C423.453,176.54,414.366,167.453,403.156,167.453z"/>
<path style="fill:#EBEBEB;" d="M370.172,167.453h-17.76c-11.21,0-20.297,9.087-20.297,20.297v101.487h45.669V187.75L370.172,167.453
	z"/>
<path style="fill:#353535;" d="M370.172,167.453v91.338c0,4.205,3.407,7.611,7.611,7.611c4.205,0,7.612-3.407,7.612-7.611v-91.338
	H370.172z"/>
<circle style="fill:#FF8646;" cx="134.216" cy="22.834" r="22.834"/>
<path style="fill:#353535;" d="M134.216,258.791v76.115c25.222,0,45.669-20.447,45.669-45.669L134.216,258.791z"/>
<path style="fill:#4F4F4F;" d="M149.439,289.237l-15.223-30.446l-45.669,30.446c0,25.222,20.447,45.669,45.669,45.669
	C142.623,334.906,149.439,314.459,149.439,289.237z"/>
<path style="fill:#A8E5FF;" d="M159.588,167.453h-17.76l-30.446,76.115l22.834,45.669h45.669V187.75
	C179.885,176.54,170.798,167.453,159.588,167.453z"/>
<path style="fill:#EBEBEB;" d="M126.605,167.453h-17.76c-11.21,0-20.297,9.087-20.297,20.297v101.487h45.669V187.75L126.605,167.453
	z"/>
<path style="fill:#353535;" d="M126.605,167.453v91.338c0,4.205,3.408,7.611,7.611,7.611s7.611-3.407,7.611-7.611v-91.338H126.605z"
	/>
<path style="fill:#FFB4A9;" d="M134.216,45.669V148.17l45.669-46.684V91.338C179.885,66.115,159.438,45.669,134.216,45.669z"/>
<path style="fill:#FFD9D4;" d="M134.216,45.669c-25.222,0-45.669,20.447-45.669,45.669v10.149l60.892,46.684V91.338
	C149.439,66.115,142.623,45.669,134.216,45.669z"/>
<path style="fill:#FF6337;" d="M153.203,101.487c-1.069-1.596-2.337-3.047-3.764-4.324l-15.223,70.291
	c25.222,0,45.669-20.447,45.669-45.669v-20.297H153.203z"/>
<path style="fill:#FF8646;" d="M149.439,121.784V97.162c-4.04-3.619-9.372-5.824-15.223-5.824c-7.917,0-14.89,4.03-18.987,10.149
	H88.547v20.297c0,25.222,20.447,45.669,45.669,45.669C142.623,167.453,149.439,147.006,149.439,121.784z"/>
<path style="fill:#4F4F4F;" d="M256,258.791v76.115c25.222,0,45.669-20.447,45.669-45.669L256,258.791z"/>
<path style="fill:#696969;" d="M271.223,289.237L256,258.791l-45.669,30.446c0,25.222,20.447,45.669,45.669,45.669
	C264.407,334.906,271.223,314.459,271.223,289.237z"/>
<rect x="230.628" y="167.453" style="fill:#EBEBEB;" width="50.743" height="121.764"/>
<path style="fill:#696969;" d="M281.372,167.453L256,197.887h-30.446L256,258.791l25.372,30.425l20.297,0.021V187.75
	C301.669,176.54,292.582,167.453,281.372,167.453z"/>
<path style="fill:#999999;" d="M230.628,167.453c-11.21,0-20.297,9.087-20.297,20.297v101.487l20.297-0.021L256,258.79v-60.903
	L230.628,167.453z"/>
<circle style="fill:#353535;" cx="256" cy="228.335" r="7.611"/>
<path style="fill:#FF8D7E;" d="M256,45.669v91.338c25.222,0,45.669-20.447,45.669-45.669S281.222,45.669,256,45.669z"/>
<path style="fill:#FFB4A9;" d="M271.223,91.338c0-25.222-6.816-45.669-15.223-45.669c-25.222,0-45.669,20.447-45.669,45.669
	s20.447,45.669,45.669,45.669C264.407,137.007,271.223,116.56,271.223,91.338z"/>
<g>
</g>
<g>
</g>
<g>
</g>
<g>
</g>
<g>
</g>
<g>
</g>
<g>
</g>
<g>
</g>
<g>
</g>
<g>
</g>
<g>
</g>
<g>
</g>
<g>
</g>
<g>
</g>
<g>
</g>
</svg>
