<svg id="Capa_1" enable-background="new 0 0 504.5 504.5" height="512" viewBox="0 0 504.5 504.5" width="512" xmlns="http://www.w3.org/2000/svg"><g><path d="m139.75 285v196.592l-24.87 8.29c-3.93 1.31-6.053 5.557-4.744 9.487 1.31 3.93 5.559 6.054 9.487 4.744l29.998-10c3.063-1.021 5.128-3.887 5.128-7.115v-201.998z" fill="#696969"/><path d="m214.75 285v196.592l24.87 8.29c3.93 1.31 6.053 5.557 4.744 9.487-1.31 3.93-5.559 6.054-9.487 4.744l-29.998-10c-3.063-1.021-5.128-3.887-5.128-7.115v-201.998z" fill="#4f4f4f"/><path d="m289.75 285v196.592l-24.87 8.29c-3.93 1.31-6.053 5.557-4.744 9.487 1.31 3.93 5.559 6.054 9.487 4.744l29.998-10c3.063-1.021 5.128-3.887 5.128-7.115v-201.998z" fill="#ffd9d4"/><path d="m364.75 285v196.592l24.87 8.29c3.93 1.31 6.053 5.557 4.744 9.487-1.31 3.93-5.559 6.054-9.487 4.744l-29.998-10c-3.063-1.021-5.128-3.887-5.128-7.115v-201.998z" fill="#ffb4a9"/><path d="m447.25 82.504c-4.142 0-7.5 3.358-7.5 7.5v64.996h15v-64.996c0-4.143-3.358-7.5-7.5-7.5z" fill="#353535"/><path d="m462.25 147.5h-15c-4.142 0-7.5 3.358-7.5 7.5s3.358 7.5 7.5 7.5h15c4.136 0 7.5 3.364 7.5 7.5s-3.364 7.5-7.5 7.5h-135v15h135c12.407 0 22.5-10.093 22.5-22.5s-10.093-22.5-22.5-22.5z" fill="#808080"/><path d="m57.25 82.504c-4.142 0-7.5 3.358-7.5 7.5v64.996h15v-64.996c0-4.143-3.358-7.5-7.5-7.5z" fill="#4f4f4f"/><path d="m42.25 177.5c-4.136 0-7.5-3.364-7.5-7.5s3.364-7.5 7.5-7.5h15c4.142 0 7.5-3.358 7.5-7.5s-3.358-7.5-7.5-7.5h-15c-12.407 0-22.5 10.093-22.5 22.5s10.093 22.5 22.5 22.5h135v-15z" fill="#999"/><path d="m360.783 60h-33.533v75c24.853 0 45-20.147 45-45 0-11.528-4.34-22.038-11.467-30z" fill="#ffb4a9"/><path d="m342.25 90c0-11.528-1.447-22.038-3.823-30h-44.71c-7.128 7.962-11.468 18.472-11.468 30 0 24.853 20.147 45 45 45 8.285 0 15.001-20.147 15.001-45z" fill="#ffd9d4"/><path d="m327.25 45 13.864 27.812c7.658-2.481 14.421-6.951 19.668-12.812-8.239-9.204-20.207-15-33.532-15z" fill="#85453d"/><path d="m327.25 45c-13.325 0-25.293 5.796-33.532 15 8.24 9.203 20.207 15 33.532 15 4.84 0 9.496-.773 13.864-2.188-2.251-16.324-7.609-27.812-13.864-27.812z" fill="#a45e43"/><path d="m343.043 10c-2.811-5.907-8.816-10-15.793-10s-12.982 4.093-15.793 10c-9.665 0-17.5 7.835-17.5 17.5s7.835 17.5 17.5 17.5h31.586c9.665 0 17.5-7.835 17.5-17.5s-7.835-17.5-17.5-17.5z" fill="#a45e43"/><path d="m357.25 165h-22.5l-27.5 120h65z" fill="#ebebeb"/><path d="m297.25 165-15 120h45v-110l-7.5-10z" fill="#fff"/><path d="m357.25 285-30 15 30 45h30v-30z" fill="#4f4f4f"/><path d="m282.25 255-15 60v30h90v-74.999l20-15.001z" fill="#696969"/><path d="m387.25 185c0-11.046-8.961-20-20.006-20h-9.994v120c0 16.569 13.431 30 30 30z" fill="#808080"/><path d="m287.256 165c-11.046 0-20 8.954-20 20l-.006 130c16.569 0 30-13.431 30-30v-120z" fill="#999"/><path d="m147.25 255 30 75c24.853 0 45-20.147 45-45z" fill="#4f4f4f"/><path d="m132.25 285c0 24.853 20.147 45 45 45v-75z" fill="#696969"/><path d="m207.25 165h-22.5l-17.5 60 10 60h50z" fill="#ebebeb"/><path d="m147.25 165-20 120h50v-110l-7.5-10z" fill="#fff"/><path d="m117.25 185v130c16.569 0 30-13.431 30-30v-120h-10c-11.046 0-20 8.955-20 20z" fill="#999"/><path d="m217.25 165h-10v120c0 16.569 13.431 30 30 30v-130c0-11.045-8.954-20-20-20z" fill="#696969"/><path d="m177.25 45v90c24.853 0 45-20.147 45-45s-20.147-45-45-45z" fill="#85453d"/><path d="m192.25 90c0-24.853-6.716-45-15-45-24.853 0-45 20.147-45 45s20.147 45 45 45c8.284 0 15-20.147 15-45z" fill="#a45e43"/><g fill="#353535"><path d="m319.75 165v60c0 4.142 3.358 7.5 7.5 7.5s7.5-3.358 7.5-7.5v-60z"/><path d="m169.75 165v90c0 4.142 3.358 7.5 7.5 7.5s7.5-3.358 7.5-7.5v-90z"/></g></g></svg>